<svg width="18" height="18" viewBox="0 0 18 18" fill="none" xmlns="http://www.w3.org/2000/svg">
<path d="M16.5431 8.5008L9.40892 15.635C8.53493 16.509 7.34954 17 6.11352 17C4.87751 17 3.69212 16.509 2.81812 15.635C1.94413 14.761 1.45313 13.5756 1.45312 12.3396C1.45313 11.1036 1.94413 9.9182 2.81812 9.04421L9.95233 1.91C10.535 1.32734 11.3253 1 12.1493 1C12.9733 1 13.7635 1.32734 14.3462 1.91C14.9289 2.49266 15.2562 3.28292 15.2562 4.10693C15.2562 4.93094 14.9289 5.7212 14.3462 6.30386L7.20422 13.4381C6.91289 13.7294 6.51776 13.8931 6.10576 13.8931C5.69375 13.8931 5.29862 13.7294 5.00729 13.4381C4.71596 13.1467 4.55229 12.7516 4.55229 12.3396C4.55229 11.9276 4.71596 11.5325 5.00729 11.2411L11.5981 4.6581" stroke="#ADADAD" stroke-linecap="round" stroke-linejoin="round"/>
</svg>
