<svg width="20" height="11" viewBox="0 0 20 11" fill="none" xmlns="http://www.w3.org/2000/svg">
<path d="M0.141087 4.94551L3.22495 0.216454C3.2697 0.147831 3.32282 0.0933952 3.38129 0.0562564C3.43976 0.0191175 3.50243 2.25321e-06 3.56571 2.24457e-06C3.629 2.23593e-06 3.69167 0.0191175 3.75014 0.0562563C3.80861 0.0933951 3.86173 0.14783 3.90648 0.216454C3.95123 0.285078 3.98673 0.366546 4.01095 0.456207C4.03517 0.545868 4.04763 0.641966 4.04763 0.739014C4.04763 0.836063 4.03517 0.932161 4.01095 1.02182C3.98673 1.11148 3.95123 1.19295 3.90648 1.26157L1.64524 4.72915L19.5181 4.72915C19.6459 4.72915 19.7685 4.807 19.8589 4.94558C19.9492 5.08415 20 5.27209 20 5.46807C20 5.66404 19.9492 5.85198 19.8589 5.99056C19.7685 6.12913 19.6459 6.20698 19.5181 6.20698L1.64524 6.20698L3.90648 9.67456C3.95249 9.74275 3.98919 9.8243 4.01442 9.91446C4.03966 10.0046 4.05293 10.1016 4.05347 10.1997C4.05401 10.2978 4.0418 10.3951 4.01755 10.4859C3.99331 10.5767 3.95751 10.6592 3.91226 10.7285C3.867 10.7979 3.81319 10.8528 3.75397 10.8899C3.69474 10.927 3.63129 10.9457 3.56731 10.9448C3.50333 10.9439 3.44011 10.9235 3.38133 10.8848C3.32254 10.846 3.26939 10.7897 3.22495 10.7191L0.141087 5.99004C0.0963424 5.92147 0.0608467 5.84006 0.0366271 5.75044C0.0124095 5.66083 -5.69091e-05 5.56478 -5.69145e-05 5.46777C-5.69199e-05 5.37077 0.0124095 5.27472 0.0366271 5.1851C0.0608466 5.09549 0.0963424 5.01408 0.141087 4.94551Z" fill="#4E72DB"/>
</svg>
