<svg width="17" height="10" viewBox="0 0 17 10" fill="none" xmlns="http://www.w3.org/2000/svg">
<path d="M8.5 0C5.25197 0 2.30648 1.7536 0.133016 4.60192C-0.0443388 4.83528 -0.0443388 5.16129 0.133016 5.39465C2.30648 8.2464 5.25197 10 8.5 10C11.748 10 14.6935 8.2464 16.867 5.39808C17.0443 5.16472 17.0443 4.83871 16.867 4.60535C14.6935 1.7536 11.748 0 8.5 0ZM8.733 8.52093C6.57691 8.65477 4.79641 6.90117 4.93203 4.77008C5.04332 3.01304 6.4865 1.58888 8.267 1.47907C10.4231 1.34523 12.2036 3.09883 12.068 5.22992C11.9532 6.98353 10.51 8.40769 8.733 8.52093ZM8.62519 6.8943C7.46369 6.96637 6.50389 6.02265 6.58039 4.87646C6.63951 3.92931 7.41848 3.16404 8.37829 3.10227C9.53979 3.0302 10.4996 3.97392 10.4231 5.12011C10.3605 6.07069 9.58152 6.83596 8.62519 6.8943Z" fill="#9F9F9F"/>
</svg>
