<svg width="20" height="11" viewBox="0 0 20 11" fill="none" xmlns="http://www.w3.org/2000/svg">
<path d="M19.8589 5.99932L16.7751 10.7284C16.7303 10.797 16.6772 10.8514 16.6187 10.8886C16.5602 10.9257 16.4976 10.9448 16.4343 10.9448C16.371 10.9448 16.3083 10.9257 16.2499 10.8886C16.1914 10.8514 16.1383 10.797 16.0935 10.7284C16.0488 10.6597 16.0133 10.5783 15.9891 10.4886C15.9648 10.399 15.9524 10.3029 15.9524 10.2058C15.9524 10.1088 15.9648 10.0127 15.9891 9.923C16.0133 9.83334 16.0488 9.75187 16.0935 9.68325L18.3548 6.21567H0.481853C0.354058 6.21567 0.231497 6.13782 0.141132 5.99925C0.0507666 5.86067 0 5.67273 0 5.47676C0 5.28078 0.0507666 5.09284 0.141132 4.95426C0.231497 4.81569 0.354058 4.73784 0.481853 4.73784H18.3548L16.0935 1.27026C16.0475 1.20208 16.0108 1.12053 15.9856 1.03037C15.9603 0.940205 15.9471 0.843238 15.9465 0.745125C15.946 0.647013 15.9582 0.549719 15.9824 0.45892C16.0067 0.36812 16.0425 0.285634 16.0877 0.216275C16.133 0.146916 16.1868 0.0920725 16.246 0.054945C16.3053 0.0178175 16.3687 -0.000850677 16.4327 2.95639e-05C16.4967 0.000909805 16.5599 0.0213213 16.6187 0.0600719C16.6775 0.0988226 16.7306 0.155138 16.7751 0.225731L19.8589 4.95479C19.9037 5.02335 19.9392 5.10477 19.9634 5.19438C19.9876 5.284 20.0001 5.38005 20.0001 5.47705C20.0001 5.57406 19.9876 5.67011 19.9634 5.75972C19.9392 5.84933 19.9037 5.93075 19.8589 5.99932Z" fill="#4E72DB"/>
</svg>
