<svg width="65" height="65" viewBox="0 0 65 65" fill="none" xmlns="http://www.w3.org/2000/svg">
<g clip-path="url(#clip0)">
<path d="M58.6528 39.7363H61.0649C62.1083 39.7351 63.1087 39.3201 63.8465 38.5823C64.5843 37.8445 64.9993 36.8442 65.0005 35.8008V21.5445C64.9993 20.5011 64.5843 19.5007 63.8465 18.7629C63.1087 18.0251 62.1083 17.6101 61.0649 17.6089H58.6528V15.2044C58.6505 13.5868 58.1642 12.0068 57.2564 10.6679C56.3486 9.32892 55.0609 8.29228 53.559 7.69133V3.41199C53.559 2.50708 53.1995 1.63922 52.5596 0.999349C51.9197 0.359477 51.0519 1.01685e-07 50.147 1.01685e-07C49.2421 1.01685e-07 48.3742 0.359477 47.7343 0.999349C47.0945 1.63922 46.735 2.50708 46.735 3.41199V7.10938H18.266V3.41199C18.266 2.96392 18.1777 2.52024 18.0063 2.10628C17.8348 1.69232 17.5835 1.31618 17.2666 0.999349C16.9498 0.682517 16.5737 0.431191 16.1597 0.259722C15.7457 0.0882538 15.3021 0 14.854 0C14.4059 0 13.9622 0.0882538 13.5483 0.259722C13.1343 0.431191 12.7582 0.682517 12.4413 0.999349C12.1245 1.31618 11.8732 1.69232 11.7017 2.10628C11.5303 2.52024 11.442 2.96392 11.442 3.41199V7.64156C9.90657 8.22378 8.58426 9.25871 7.6502 10.6093C6.71615 11.9598 6.21444 13.5623 6.21153 15.2044V22.6586C6.21273 23.4533 6.48963 24.223 6.99499 24.8363C7.50034 25.4497 8.20285 25.8687 8.98266 26.0218C9.16496 27.2916 9.75886 28.4665 10.6732 29.3662C11.5876 30.2659 12.772 30.8407 14.0445 31.0025V34.8456C14.0445 35.0813 14.1382 35.3073 14.3048 35.474C14.4715 35.6406 14.6975 35.7343 14.9332 35.7343C15.1689 35.7343 15.3949 35.6406 15.5616 35.474C15.7283 35.3073 15.8219 35.0813 15.8219 34.8456V30.9766C17.0619 30.7843 18.2074 30.199 19.0897 29.3069C19.9721 28.4147 20.5447 27.2628 20.7233 26.0208C21.5031 25.8676 22.2056 25.4486 22.711 24.8353C23.2163 24.222 23.4932 23.4523 23.4944 22.6576C23.4955 21.6552 23.8942 20.6942 24.6029 19.9854C25.3117 19.2767 26.2727 18.878 27.2751 18.8769H35.0497C36.7254 18.8788 38.332 19.5454 39.5169 20.7303C40.7018 21.9153 41.3682 23.5219 41.3699 25.1977V44.4991H10.2837C9.24027 44.5003 8.23995 44.9153 7.50216 45.6531C6.76436 46.3909 6.34934 47.3912 6.34813 48.4346V57.5418H3.72934C2.74051 57.5418 1.79219 57.9346 1.09299 58.6338C0.393785 59.333 0.000976563 60.2813 0.000976562 61.2701C0.000976563 62.2589 0.393785 63.2073 1.09299 63.9065C1.79219 64.6057 2.74051 64.9985 3.72934 64.9985H61.2716C62.2604 64.9985 63.2088 64.6057 63.908 63.9065C64.6072 63.2073 65 62.2589 65 61.2701C65 60.2813 64.6072 59.333 63.908 58.6338C63.2088 57.9346 62.2604 57.5418 61.2716 57.5418H58.6528V39.7363ZM61.0649 19.3862C61.6371 19.3869 62.1857 19.6145 62.5903 20.0191C62.9949 20.4237 63.2225 20.9723 63.2231 21.5445V35.8008C63.2225 36.373 62.9949 36.9215 62.5903 37.3261C62.1857 37.7307 61.6371 37.9583 61.0649 37.959H58.6528V19.3862H61.0649ZM48.5123 3.41199C48.5123 2.97846 48.6845 2.56268 48.9911 2.25612C49.2977 1.94957 49.7134 1.77734 50.147 1.77734C50.5805 1.77734 50.9963 1.94957 51.3028 2.25612C51.6094 2.56268 51.7816 2.97846 51.7816 3.41199V7.10938H48.5123V3.41199ZM13.2193 7.10938V3.41199C13.2193 2.97846 13.3916 2.56268 13.6981 2.25612C14.0047 1.94957 14.4205 1.77734 14.854 1.77734C15.2875 1.77734 15.7033 1.94957 16.0099 2.25612C16.3164 2.56268 16.4886 2.97846 16.4886 3.41199V7.10938H13.2193ZM14.9342 29.2769H14.7738C13.8471 29.2757 12.9484 28.9593 12.2252 28.3799C11.502 27.8005 10.9974 26.9924 10.794 26.0884H18.914C18.7102 26.9921 18.2054 27.7997 17.4822 28.3787C16.7591 28.9577 15.8606 29.2737 14.9342 29.2749V29.2769ZM35.0497 17.1006H27.2761C25.8026 17.1023 24.3899 17.6885 23.3479 18.7304C22.306 19.7724 21.7198 21.1851 21.7181 22.6586C21.7176 23.0961 21.5435 23.5156 21.2341 23.825C20.9247 24.1344 20.5052 24.3084 20.0677 24.309H9.64028C9.20273 24.3084 8.78326 24.1344 8.47387 23.825C8.16448 23.5156 7.99042 23.0961 7.98989 22.6586V15.2044C7.99244 13.5292 8.65922 11.9234 9.84401 10.7391C11.0288 9.55474 12.6349 8.8886 14.3101 8.88672H50.5558C52.2309 8.8886 53.837 9.55475 55.0217 10.7391C56.2064 11.9234 56.8731 13.5292 56.8755 15.2044V44.4991H43.1473V25.1977C43.1447 23.0509 42.2908 20.9928 40.7727 19.4748C39.2547 17.9568 37.1965 17.103 35.0497 17.1006ZM63.2231 61.2701C63.2225 61.7874 63.0166 62.2834 62.6508 62.6491C62.2849 63.0149 61.7889 63.2206 61.2716 63.2211H3.72934C3.47313 63.2211 3.21942 63.1707 2.98272 63.0726C2.74601 62.9746 2.53093 62.8309 2.34976 62.6497C2.16859 62.4685 2.02488 62.2534 1.92683 62.0167C1.82879 61.78 1.77832 61.5263 1.77832 61.2701C1.77832 61.0139 1.82879 60.7602 1.92683 60.5235C2.02488 60.2868 2.16859 60.0717 2.34976 59.8905C2.53093 59.7094 2.74601 59.5657 2.98272 59.4676C3.21942 59.3696 3.47313 59.3191 3.72934 59.3191H61.2716C61.7889 59.3196 62.2849 59.5253 62.6508 59.8911C63.0166 60.2569 63.2225 60.7528 63.2231 61.2701ZM8.12547 57.5418V48.4346C8.12614 47.8625 8.35374 47.3139 8.75834 46.9093C9.16293 46.5047 9.71149 46.2771 10.2837 46.2764H56.8755V57.5418H8.12547Z" fill="#2F363D"/>
<path d="M47.335 32.1201H52.6843C52.9199 32.1201 53.146 32.0265 53.3126 31.8598C53.4793 31.6932 53.5729 31.4671 53.5729 31.2314C53.5729 30.9958 53.4793 30.7697 53.3126 30.6031C53.146 30.4364 52.9199 30.3428 52.6843 30.3428H47.335C47.0993 30.3428 46.8732 30.4364 46.7066 30.6031C46.5399 30.7697 46.4463 30.9958 46.4463 31.2314C46.4463 31.4671 46.5399 31.6932 46.7066 31.8598C46.8732 32.0265 47.0993 32.1201 47.335 32.1201Z" fill="#2F363D"/>
<path d="M47.335 27.5808H52.6843C52.9199 27.5808 53.146 27.4872 53.3126 27.3205C53.4793 27.1539 53.5729 26.9278 53.5729 26.6921C53.5729 26.4564 53.4793 26.2304 53.3126 26.0638C53.146 25.8971 52.9199 25.8035 52.6843 25.8035H47.335C47.0993 25.8035 46.8732 25.8971 46.7066 26.0638C46.5399 26.2304 46.4463 26.4564 46.4463 26.6921C46.4463 26.9278 46.5399 27.1539 46.7066 27.3205C46.8732 27.4872 47.0993 27.5808 47.335 27.5808Z" fill="#2F363D"/>
<path d="M47.335 23.041H52.6843C52.9199 23.041 53.146 22.9474 53.3126 22.7807C53.4793 22.6141 53.5729 22.388 53.5729 22.1523C53.5729 21.9167 53.4793 21.6906 53.3126 21.524C53.146 21.3573 52.9199 21.2637 52.6843 21.2637H47.335C47.0993 21.2637 46.8732 21.3573 46.7066 21.524C46.5399 21.6906 46.4463 21.9167 46.4463 22.1523C46.4463 22.388 46.5399 22.6141 46.7066 22.7807C46.8732 22.9474 47.0993 23.041 47.335 23.041Z" fill="#2F363D"/>
<path d="M47.335 18.5022H52.6843C52.9199 18.5022 53.146 18.4086 53.3126 18.2419C53.4793 18.0753 53.5729 17.8492 53.5729 17.6135C53.5729 17.3778 53.4793 17.1518 53.3126 16.9851C53.146 16.8185 52.9199 16.7249 52.6843 16.7249H47.335C47.0993 16.7249 46.8732 16.8185 46.7066 16.9851C46.5399 17.1518 46.4463 17.3778 46.4463 17.6135C46.4463 17.8492 46.5399 18.0753 46.7066 18.2419C46.8732 18.4086 47.0993 18.5022 47.335 18.5022Z" fill="#2F363D"/>
<path d="M49.6078 41.1983H50.4178C50.8359 41.2036 51.2509 41.1258 51.6387 40.9695C52.0266 40.8131 52.3795 40.5813 52.6771 40.2875C52.9746 39.9937 53.2109 39.6438 53.3721 39.2579C53.5334 38.8721 53.6164 38.4581 53.6164 38.0399C53.6164 37.6218 53.5334 37.2078 53.3721 36.822C53.2109 36.4361 52.9746 36.0862 52.6771 35.7924C52.3795 35.4986 52.0266 35.2668 51.6387 35.1104C51.2509 34.9541 50.8359 34.8763 50.4178 34.8816H49.6078C48.7771 34.8921 47.984 35.2295 47.4003 35.8207C46.8166 36.4118 46.4893 37.2092 46.4893 38.0399C46.4893 38.8707 46.8166 39.668 47.4003 40.2592C47.984 40.8504 48.7771 41.1877 49.6078 41.1983ZM49.6078 36.6589H50.4178C50.6013 36.6554 50.7838 36.6885 50.9544 36.7564C51.1251 36.8242 51.2804 36.9253 51.4115 37.0539C51.5426 37.1825 51.6467 37.3359 51.7178 37.5052C51.7889 37.6746 51.8255 37.8563 51.8255 38.0399C51.8255 38.2236 51.7889 38.4053 51.7178 38.5746C51.6467 38.7439 51.5426 38.8974 51.4115 39.026C51.2804 39.1545 51.1251 39.2557 50.9544 39.3235C50.7838 39.3913 50.6013 39.4245 50.4178 39.4209H49.6078C49.2461 39.414 48.9016 39.2655 48.6483 39.0072C48.3949 38.749 48.253 38.4017 48.253 38.0399C48.253 37.6782 48.3949 37.3309 48.6483 37.0727C48.9016 36.8144 49.2461 36.6659 49.6078 36.6589Z" fill="#2F363D"/>
</g>
<defs>
<clipPath id="clip0">
<rect width="65" height="65" fill="white"/>
</clipPath>
</defs>
</svg>
