<svg width="70" height="70" viewBox="0 0 70 70" fill="none" xmlns="http://www.w3.org/2000/svg">
<path d="M53.8498 62.5707H16.15C15.8992 62.5707 15.6586 62.471 15.4812 62.2936C15.3038 62.1162 15.2041 61.8756 15.2041 61.6247V28.1893C15.2041 27.9384 15.3038 27.6978 15.4812 27.5204C15.6586 27.343 15.8992 27.2433 16.15 27.2433C16.4009 27.2433 16.6415 27.343 16.8189 27.5204C16.9963 27.6978 17.096 27.9384 17.096 28.1893V60.6788H52.9038V28.1893C52.9038 27.9384 53.0035 27.6978 53.1809 27.5204C53.3583 27.343 53.5989 27.2433 53.8498 27.2433C54.1007 27.2433 54.3413 27.343 54.5187 27.5204C54.6961 27.6978 54.7957 27.9384 54.7957 28.1893V61.6247C54.7957 61.8756 54.6961 62.1162 54.5187 62.2936C54.3413 62.471 54.1007 62.5707 53.8498 62.5707Z" fill="#C3CADF"/>
<path d="M64.8606 29.1352H53.8498C53.5989 29.1352 53.3583 29.0356 53.1809 28.8582C53.0035 28.6808 52.9039 28.4402 52.9039 28.1893C52.9039 27.9384 53.0035 27.6978 53.1809 27.5204C53.3583 27.343 53.5989 27.2433 53.8498 27.2433H64.066L66.0837 15.821L45.2218 9.38861C42.0075 10.8345 38.5231 11.5821 34.9985 11.5821C31.474 11.5821 27.9895 10.8345 24.7752 9.38861L3.91332 15.821L5.93197 27.2433H16.1482C16.3991 27.2433 16.6397 27.343 16.8171 27.5204C16.9945 27.6978 17.0941 27.9384 17.0941 28.1893C17.0941 28.4402 16.9945 28.6808 16.8171 28.8582C16.6397 29.0356 16.3991 29.1352 16.1482 29.1352H5.13927C4.91705 29.1351 4.70199 29.0567 4.53179 28.9138C4.36159 28.7709 4.24712 28.5727 4.20845 28.3539L1.90697 15.3244C1.86695 15.0976 1.91107 14.8639 2.03107 14.6673C2.15106 14.4707 2.33868 14.3246 2.55872 14.2564L24.5548 7.47307C24.773 7.40534 25.0084 7.41946 25.217 7.5128C28.2806 8.93988 31.6193 9.67936 34.999 9.67936C38.3787 9.67936 41.7174 8.93988 44.781 7.5128C44.9896 7.41946 45.225 7.40534 45.4432 7.47307L67.4393 14.2593C67.6593 14.3274 67.8469 14.4735 67.9669 14.6701C68.0869 14.8668 68.1311 15.1004 68.091 15.3273L65.7924 28.3529C65.7539 28.5721 65.6394 28.7707 65.4689 28.9137C65.2985 29.0568 65.0831 29.1352 64.8606 29.1352Z" fill="#C3CADF"/>
<path d="M35.0006 18.5321C32.2278 18.5405 29.5517 17.5135 27.4964 15.6522C25.4412 13.7908 24.1549 11.2292 23.8895 8.46908C23.8644 8.21946 23.9395 7.97009 24.0983 7.77584C24.2571 7.58158 24.4865 7.45836 24.7361 7.43327C24.9858 7.40818 25.2351 7.48329 25.4294 7.64206C25.6236 7.80083 25.7469 8.03027 25.7719 8.27989C25.9983 10.5708 27.0684 12.6956 28.7743 14.2413C30.4802 15.787 32.7 16.643 35.002 16.643C37.304 16.643 39.5238 15.787 41.2297 14.2413C42.9356 12.6956 44.0058 10.5708 44.2321 8.27989C44.2572 8.03027 44.3804 7.80083 44.5746 7.64206C44.7689 7.48329 45.0183 7.40818 45.2679 7.43327C45.5175 7.45836 45.747 7.58158 45.9057 7.77584C46.0645 7.97009 46.1396 8.21946 46.1145 8.46908C45.8489 11.2296 44.5621 13.7915 42.5063 15.6529C40.4505 17.5143 37.7739 18.541 35.0006 18.5321Z" fill="#C3CADF"/>
<circle cx="13" cy="20" r="5" fill="#808FBD"/>
</svg>
