<svg width="70" height="70" viewBox="0 0 70 70" fill="none" xmlns="http://www.w3.org/2000/svg">
<path d="M53.8498 62.5706H16.15C15.8992 62.5706 15.6586 62.4709 15.4812 62.2935C15.3038 62.1161 15.2041 61.8755 15.2041 61.6246V28.1892C15.2041 27.9384 15.3038 27.6977 15.4812 27.5203C15.6586 27.3429 15.8992 27.2433 16.15 27.2433C16.4009 27.2433 16.6415 27.3429 16.8189 27.5203C16.9963 27.6977 17.096 27.9384 17.096 28.1892V60.6787H52.9038V28.1892C52.9038 27.9384 53.0035 27.6977 53.1809 27.5203C53.3583 27.3429 53.5989 27.2433 53.8498 27.2433C54.1007 27.2433 54.3413 27.3429 54.5187 27.5203C54.6961 27.6977 54.7957 27.9384 54.7957 28.1892V61.6246C54.7957 61.8755 54.6961 62.1161 54.5187 62.2935C54.3413 62.4709 54.1007 62.5706 53.8498 62.5706Z" fill="#C3CADF"/>
<path d="M64.8606 29.1352H53.8498C53.5989 29.1352 53.3583 29.0355 53.1809 28.8581C53.0035 28.6807 52.9039 28.4401 52.9039 28.1892C52.9039 27.9383 53.0035 27.6977 53.1809 27.5203C53.3583 27.3429 53.5989 27.2433 53.8498 27.2433H64.066L66.0837 15.821L45.2218 9.38855C42.0075 10.8344 38.5231 11.582 34.9985 11.582C31.474 11.582 27.9895 10.8344 24.7752 9.38855L3.91332 15.821L5.93197 27.2433H16.1482C16.3991 27.2433 16.6397 27.3429 16.8171 27.5203C16.9945 27.6977 17.0941 27.9383 17.0941 28.1892C17.0941 28.4401 16.9945 28.6807 16.8171 28.8581C16.6397 29.0355 16.3991 29.1352 16.1482 29.1352H5.13927C4.91705 29.135 4.70199 29.0566 4.53179 28.9137C4.36159 28.7709 4.24712 28.5726 4.20845 28.3538L1.90697 15.3244C1.86695 15.0975 1.91107 14.8639 2.03107 14.6672C2.15106 14.4706 2.33868 14.3245 2.55872 14.2564L24.5548 7.47301C24.773 7.40528 25.0084 7.4194 25.217 7.51274C28.2806 8.93982 31.6193 9.6793 34.999 9.6793C38.3787 9.6793 41.7174 8.93982 44.781 7.51274C44.9896 7.4194 45.225 7.40528 45.4432 7.47301L67.4393 14.2592C67.6593 14.3274 67.8469 14.4734 67.9669 14.6701C68.0869 14.8667 68.1311 15.1003 68.091 15.3272L65.7924 28.3529C65.7539 28.572 65.6394 28.7706 65.4689 28.9137C65.2985 29.0568 65.0831 29.1352 64.8606 29.1352Z" fill="#C3CADF"/>
<circle cx="34.5625" cy="31.1875" r="9.1875" fill="#808FBD"/>
</svg>
