<svg width="272" height="272" viewBox="0 0 272 272" fill="none" xmlns="http://www.w3.org/2000/svg">
<path d="M153.405 0.950246L138.556 0L137.101 22.7536L141.832 23.0564L142.418 13.8894L151.126 14.4466L151.396 10.2123L142.689 9.65506L143.016 4.55137L153.134 5.19885L153.405 0.950246Z" fill="#E97275"/>
<path fill-rule="evenodd" clip-rule="evenodd" d="M165.525 3.27766L161.828 2.48518L148.516 22.9968L153.393 24.0424L156.45 19.1334L163.616 20.6697L164.422 26.4067L169.283 27.4487L165.525 3.27766ZM158.862 15.2913L162.145 10.0406L162.998 16.1781L158.862 15.2913Z" fill="#E97275"/>
<path d="M181.817 8.04617L177.328 6.52002L169.995 28.1075L174.484 29.6337L181.817 8.04617Z" fill="#E97275"/>
<path fill-rule="evenodd" clip-rule="evenodd" d="M194.072 13.153L186.942 9.7904L177.224 30.4138L181.525 32.4423L185.112 24.8314L188.084 26.2331L188.579 35.769L192.685 37.7054L193.295 36.4122L192.693 27.1592C193.756 27.0963 194.751 26.8209 195.661 26.3189C196.909 25.6389 197.85 24.6019 198.483 23.2566C199.446 21.2141 199.596 19.2254 198.756 17.3919C197.941 15.6008 196.315 14.2108 194.072 13.153ZM186.92 20.9934L189.429 15.6698L192.319 17.0328C193.492 17.5959 194.11 18.2324 194.379 18.8733L194.381 18.879C194.648 19.5031 194.641 20.255 194.182 21.228C193.788 22.0641 193.235 22.5278 192.511 22.7329L192.505 22.7345C191.774 22.9461 190.901 22.8706 189.826 22.364L186.92 20.9934Z" fill="#E97275"/>
<path fill-rule="evenodd" clip-rule="evenodd" d="M219.15 28.9813L212.555 23.9222L198.882 41.7616L202.093 44.2249L206.719 38.1883L210.104 40.7842C211.756 42.0514 213.607 42.5786 215.607 42.3144C217.608 42.0502 219.259 41.0604 220.526 39.4079C221.793 37.7553 222.32 35.9032 222.055 33.9018C221.791 31.9003 220.802 30.2485 219.15 28.9813ZM209.111 35.0687L213.375 29.505L216.759 32.1009C217.565 32.7188 217.978 33.4539 218.074 34.3415L218.075 34.3531L218.077 34.3646C218.193 35.2496 217.966 36.0945 217.315 36.9446C216.663 37.7946 215.897 38.2449 214.992 38.3749C214.122 38.5003 213.306 38.287 212.495 37.6646L209.111 35.0687Z" fill="#E97275"/>
<path fill-rule="evenodd" clip-rule="evenodd" d="M234.622 43.0736L228.245 36.4558L212.067 52.0577L214.875 54.9721L220.771 49.2867L223.658 52.2824L221.091 61.4223L224.208 64.6569L223.987 64.83L226.491 68.0214L244.236 54.0889L241.733 50.8976L224.407 64.5005L227.096 54.7598C228.114 55.1298 229.189 55.2509 230.309 55.1219C231.897 54.9426 233.283 54.288 234.437 53.1751C235.849 51.8133 236.578 50.1234 236.6 48.1623C236.65 46.2018 235.983 44.4863 234.622 43.0736ZM223.6 46.5584L228.224 42.0986L231.793 45.8019C232.388 46.4198 232.665 47.137 232.638 48.0156C232.612 48.8925 232.287 49.6252 231.628 50.2607C230.988 50.8783 230.244 51.1819 229.343 51.1881C228.467 51.1813 227.763 50.8782 227.168 50.2617L223.6 46.5584Z" fill="#E97275"/>
<path d="M248.686 60.8922L246.977 58.097L227.871 69.7903L229.978 73.2373L242.244 65.7306L235.113 81.633L236.822 84.4281L255.928 72.7348L253.82 69.2878L241.555 76.7945L248.686 60.8922Z" fill="#E97275"/>
<path d="M264.241 91.463L257.837 76.118L254.211 77.6325L256.633 83.4372L239.523 90.5834L241.082 94.3191L258.192 87.1728L260.614 92.9775L264.241 91.463Z" fill="#E97275"/>
<path d="M262.439 115.022C262.264 113.96 261.733 113.083 260.87 112.442L260.863 112.436L260.856 112.432C259.991 111.811 259.004 111.58 257.953 111.753C256.891 111.929 256.015 112.461 255.374 113.324L255.364 113.337L255.354 113.351C254.743 114.235 254.52 115.237 254.695 116.299C254.869 117.35 255.404 118.211 256.269 118.832L256.276 118.837L256.283 118.842C257.167 119.453 258.168 119.676 259.23 119.5C260.28 119.327 261.141 118.792 261.762 117.926C262.382 117.061 262.612 116.073 262.439 115.022Z" fill="#E97275"/>
<path d="M271.107 153.215L272 138.333L249.213 136.965L248.928 141.704L258.11 142.255L257.587 150.984L261.825 151.238L262.348 142.51L267.464 142.817L266.855 152.96L271.107 153.215Z" fill="#E97275"/>
<path fill-rule="evenodd" clip-rule="evenodd" d="M268.704 165.167L269.459 161.466L248.865 148.374L247.869 153.258L252.795 156.261L251.333 163.428L245.618 164.288L244.626 169.155L268.704 165.167ZM256.655 158.634L261.917 161.856L255.812 162.767L256.655 158.634Z" fill="#E97275"/>
<path d="M264.041 181.737L265.557 177.236L243.91 169.941L242.395 174.442L264.041 181.737Z" fill="#E97275"/>
<path fill-rule="evenodd" clip-rule="evenodd" d="M258.824 193.972L262.175 186.835L241.547 177.141L239.525 181.447L247.138 185.025L245.741 188L236.209 188.509L234.279 192.619L235.573 193.227L244.821 192.612C244.886 193.676 245.162 194.67 245.666 195.58C246.347 196.828 247.385 197.767 248.731 198.4C250.774 199.36 252.762 199.507 254.593 198.664C256.382 197.846 257.77 196.218 258.824 193.972ZM250.977 186.828L256.302 189.331L254.943 192.224C254.382 193.398 253.747 194.017 253.106 194.287L253.101 194.289C252.477 194.557 251.726 194.551 250.752 194.094C249.916 193.701 249.452 193.148 249.246 192.423L249.244 192.418C249.031 191.687 249.106 190.813 249.611 189.738L250.977 186.828Z" fill="#E97275"/>
<path fill-rule="evenodd" clip-rule="evenodd" d="M242.878 219.058L247.949 212.488L230.194 198.773L227.724 201.974L233.731 206.615L231.13 209.983C229.86 211.629 229.328 213.476 229.585 215.475C229.842 217.474 230.824 219.127 232.469 220.397C234.114 221.668 235.96 222.2 237.958 221.943C239.957 221.686 241.608 220.704 242.878 219.058ZM236.838 209.015L242.371 213.289L239.771 216.658C239.152 217.46 238.418 217.869 237.533 217.962L237.521 217.964L237.51 217.965C236.627 218.079 235.785 217.849 234.939 217.196C234.094 216.543 233.648 215.777 233.521 214.874C233.399 214.005 233.614 213.191 234.238 212.384L236.838 209.015Z" fill="#E97275"/>
<path fill-rule="evenodd" clip-rule="evenodd" d="M228.981 234.577L235.586 228.187L219.965 212.027L217.056 214.841L222.749 220.73L219.759 223.623L210.619 221.069L207.4 224.183L207.223 223.956L204.033 226.461L217.96 244.213L221.15 241.709L207.569 224.398L217.288 227.066C216.92 228.085 216.8 229.161 216.931 230.282C217.113 231.869 217.769 233.255 218.883 234.408C220.247 235.818 221.937 236.545 223.898 236.564C225.857 236.611 227.571 235.941 228.981 234.577ZM225.481 223.556L229.946 228.175L226.25 231.751C225.633 232.348 224.916 232.626 224.038 232.601C223.161 232.575 222.429 232.252 221.792 231.594C221.174 230.954 220.869 230.21 220.862 229.309C220.867 228.432 221.169 227.727 221.784 227.132L225.481 223.556Z" fill="#E97275"/>
<path d="M211.277 248.828L214.074 247.111L202.323 227.949L198.874 230.066L206.424 242.378L190.453 235.234L187.656 236.951L199.407 256.113L202.856 253.996L195.306 241.684L211.277 248.828Z" fill="#E97275"/>
<path d="M180.665 264.269L195.994 257.839L194.474 254.214L188.676 256.646L181.506 239.54L177.774 241.106L184.944 258.212L179.145 260.644L180.665 264.269Z" fill="#E97275"/>
<path d="M157.117 262.501C158.179 262.324 159.055 261.791 159.694 260.927L159.699 260.92L159.704 260.913C160.323 260.047 160.552 259.058 160.378 258.008C160.201 256.946 159.668 256.07 158.804 255.43L158.791 255.42L158.777 255.41C157.892 254.8 156.89 254.579 155.829 254.756C154.779 254.931 153.918 255.468 153.299 256.334L153.294 256.341L153.29 256.348C152.68 257.233 152.459 258.235 152.636 259.297C152.811 260.348 153.347 261.208 154.213 261.827C155.08 262.447 156.067 262.676 157.117 262.501Z" fill="#E97275"/>
<path d="M118.908 271.094L133.76 272L135.148 249.242L130.416 248.953L129.857 258.122L121.148 257.591L120.89 261.826L129.598 262.357L129.287 267.462L119.167 266.844L118.908 271.094Z" fill="#E97275"/>
<path fill-rule="evenodd" clip-rule="evenodd" d="M106.928 268.766L110.625 269.53L123.758 248.962L118.88 247.954L115.866 252.875L108.708 251.396L107.861 245.678L102.999 244.673L106.928 268.766ZM113.485 256.73L110.253 261.985L109.358 255.877L113.485 256.73Z" fill="#E97275"/>
<path d="M90.452 264.081L94.9452 265.594L102.218 243.987L97.7252 242.473L90.452 264.081Z" fill="#E97275"/>
<path fill-rule="evenodd" clip-rule="evenodd" d="M78.2069 259.195L85.3781 262.506L94.9483 241.762L90.625 239.766L87.0925 247.423L84.099 246.041L83.5253 236.488L79.3976 234.582L78.7985 235.881L79.4766 245.151C78.411 245.222 77.4165 245.506 76.5082 246.017C75.2626 246.709 74.3291 247.755 73.7048 249.108C72.7571 251.163 72.6226 253.156 73.4797 254.986C74.3103 256.774 75.9507 258.154 78.2069 259.195ZM85.313 251.28L82.8402 256.64L79.9305 255.297C78.7503 254.742 78.1252 254.109 77.8501 253.468L77.8477 253.462C77.5752 252.838 77.5763 252.084 78.0281 251.104C78.4164 250.263 78.9677 249.793 79.6926 249.581L79.6982 249.58C80.4297 249.361 81.3063 249.43 82.3872 249.929L85.313 251.28Z" fill="#E97275"/>
<path fill-rule="evenodd" clip-rule="evenodd" d="M53.0653 243.256L59.6756 248.295L73.2959 230.416L70.0774 227.962L65.4686 234.012L62.0768 231.426C60.4211 230.164 58.5682 229.642 56.5684 229.912C54.5685 230.183 52.9203 231.177 51.6586 232.834C50.3969 234.49 49.8754 236.343 50.1454 238.344C50.4154 240.345 51.4097 241.994 53.0653 243.256ZM63.0868 237.139L58.8389 242.715L55.4471 240.129C54.6398 239.514 54.2246 238.78 54.1258 237.893L54.1245 237.881L54.1229 237.869C54.0035 236.985 54.228 236.139 54.877 235.287C55.526 234.435 56.291 233.983 57.1952 233.85C58.0652 233.722 58.8818 233.933 59.695 234.553L63.0868 237.139Z" fill="#E97275"/>
<path fill-rule="evenodd" clip-rule="evenodd" d="M37.5459 229.215L43.9425 235.814L60.0741 220.164L57.257 217.258L51.3785 222.961L48.4829 219.974L51.0225 210.827L47.9031 207.609L48.1377 207.424L45.6341 204.233L27.8887 218.165L30.3923 221.357L47.6932 207.773L45.0374 217.507C44.0182 217.14 42.9425 217.022 41.8228 217.154C40.2358 217.338 38.8516 217.997 37.701 219.113C36.293 220.479 35.5686 222.171 35.5525 224.133C35.5084 226.093 36.1805 227.807 37.5459 229.215ZM48.5576 225.698L43.9464 230.171L40.3669 226.479C39.7696 225.863 39.4906 225.146 39.5147 224.268C39.5387 223.391 39.861 222.657 40.5181 222.019C41.1566 221.4 41.9001 221.094 42.8009 221.085C43.6769 221.089 44.3821 221.39 44.978 222.005L48.5576 225.698Z" fill="#E97275"/>
<path d="M23.2751 211.514L24.9956 214.31L44.1307 202.524L42.0092 199.077L29.7145 206.649L36.8299 190.661L35.1094 187.865L15.9744 199.651L18.0959 203.099L30.3906 195.526L23.2751 211.514Z" fill="#E97275"/>
<path d="M7.7882 180.897L14.2375 196.223L17.8592 194.698L15.4195 188.9L32.5085 181.703L30.9384 177.972L13.8495 185.169L11.4099 179.372L7.7882 180.897Z" fill="#E97275"/>
<path d="M9.33709 157.433C9.51985 158.498 10.0593 159.374 10.9291 160.012L10.936 160.017L10.9429 160.022C11.8152 160.638 12.8072 160.863 13.86 160.682C14.9243 160.5 15.8003 159.96 16.4376 159.09L16.4476 159.076L16.4572 159.062C17.0646 158.171 17.2809 157.164 17.0981 156.1C16.9174 155.047 16.3746 154.186 15.5023 153.569L15.4954 153.564L15.4884 153.559C14.5974 152.952 13.5916 152.735 12.5273 152.918C11.4745 153.099 10.6143 153.642 9.99764 154.515C9.38102 155.387 9.15631 156.38 9.33709 157.433Z" fill="#E97275"/>
<path d="M0.882467 119.153L0 134.013L22.7507 135.365L23.0319 130.63L13.8661 130.086L14.3836 121.372L10.1497 121.121L9.6323 129.834L4.52925 129.531L5.13054 119.406L0.882467 119.153Z" fill="#E97275"/>
<path fill-rule="evenodd" clip-rule="evenodd" d="M3.16724 107.169L2.41224 110.87L23.0063 123.963L24.0025 119.079L19.0759 116.075L20.5379 108.909L26.2528 108.048L27.2456 103.182L3.16724 107.169ZM15.2163 113.703L9.95382 110.48L16.0593 109.57L15.2163 113.703Z" fill="#E97275"/>
<path d="M7.77133 90.5847L6.25575 95.0859L27.9024 102.38L29.418 97.8792L7.77133 90.5847Z" fill="#E97275"/>
<path fill-rule="evenodd" clip-rule="evenodd" d="M12.9116 78.3977L9.58277 85.5458L30.2417 95.1743L32.2499 90.8621L24.6258 87.3087L26.0135 84.3289L35.5431 83.7903L37.4601 79.6738L36.1647 79.07L26.9182 79.7136C26.8506 78.6503 26.5708 77.657 26.0648 76.7488C25.3795 75.5027 24.3386 74.5669 22.991 73.9388C20.945 72.9852 18.9564 72.8437 17.1275 73.6931C15.3409 74.5161 13.9588 76.149 12.9116 78.3977ZM20.7813 85.5169L15.4484 83.0314L16.7978 80.1339C17.3553 78.9581 17.9887 78.337 18.6282 78.065L18.6338 78.0626C19.2565 77.7932 20.0081 77.7968 20.9828 78.2511C21.8203 78.6414 22.2864 79.1929 22.4946 79.9165L22.4963 79.9221C22.7111 80.6524 22.6396 81.5265 22.1381 82.6033L20.7813 85.5169Z" fill="#E97275"/>
<path fill-rule="evenodd" clip-rule="evenodd" d="M28.6092 53.2411L23.5821 59.862L41.4761 73.4597L43.9238 70.2361L37.8688 65.6349L40.4482 62.2376C41.7073 60.5793 42.2259 58.7249 41.9528 56.7246C41.6796 54.7244 40.6827 53.0771 39.0251 51.8175C37.3675 50.5578 35.5138 50.039 33.5144 50.3123C31.5149 50.5856 29.8683 51.5828 28.6092 53.2411ZM34.7396 63.257L29.1588 59.0162L31.7383 55.619C32.3523 54.8104 33.0852 54.3939 33.972 54.2936L33.9836 54.2923L33.9951 54.2907C34.8791 54.1699 35.7248 54.3931 36.5775 55.0411C37.4301 55.689 37.8836 56.4535 38.0177 57.3579C38.147 58.2281 37.9375 59.0453 37.3191 59.8598L34.7396 63.257Z" fill="#E97275"/>
<path fill-rule="evenodd" clip-rule="evenodd" d="M42.6289 37.6963L36.0428 44.1058L51.7116 60.2193L54.6121 57.3966L48.9022 51.5247L51.8836 48.6232L61.0314 51.1494L64.2526 48.0145L64.4335 48.2451L67.6236 45.7405L53.6968 27.9879L50.5068 30.4925L64.1 47.8199L54.3443 45.1724C54.7096 44.1522 54.8258 43.0759 54.6917 41.9559C54.5053 40.3685 53.8446 38.9849 52.727 37.8356C51.3594 36.4291 49.6668 35.7071 47.7065 35.694C45.7466 35.653 44.0348 36.3281 42.6289 37.6963ZM46.1622 48.7069L41.6833 44.1009L45.3689 40.5141C45.9838 39.9156 46.6994 39.6354 47.5778 39.6581C48.4545 39.6808 49.1883 40.002 49.8266 40.6583C50.4468 41.2962 50.7537 42.0394 50.764 42.9406C50.7611 43.8169 50.4613 44.523 49.8478 45.1201L46.1622 48.7069Z" fill="#E97275"/>
<path d="M60.2887 23.3919L57.4966 25.117L69.3045 44.2433L72.7473 42.1161L65.1605 29.8271L81.1522 36.923L83.9443 35.1979L72.1364 16.0716L68.6936 18.1988L76.2804 30.4878L60.2887 23.3919Z" fill="#E97275"/>
<path d="M90.8745 7.84761L75.5649 14.3236L77.0952 17.9443L82.8865 15.4946L90.1074 32.5791L93.8344 31.0026L86.6136 13.9181L92.4049 11.4684L90.8745 7.84761Z" fill="#E97275"/>
<path d="M114.42 9.55308C113.359 9.733 112.485 10.269 111.848 11.1349L111.843 11.1417L111.838 11.1486C111.221 12.017 110.995 13.0057 111.173 14.0557C111.353 15.1173 111.889 15.9919 112.754 16.6292L112.768 16.6392L112.782 16.6488C113.668 17.2563 114.67 17.4742 115.731 17.2942C116.781 17.1163 117.64 16.5769 118.256 15.7085L118.261 15.7016L118.266 15.6946C118.873 14.8076 119.091 13.8052 118.911 12.7437C118.733 11.6936 118.194 10.8347 117.326 10.218C116.458 9.6013 115.47 9.3751 114.42 9.55308Z" fill="#E97275"/>
</svg>
