<svg width="446" height="387" viewBox="0 0 446 387" fill="none" xmlns="http://www.w3.org/2000/svg">
<path d="M33.7155 176.115L58.7461 162.501L58.6363 104.569L33.6167 118.182L33.7155 176.115Z" fill="#BB2C2E"/>
<path d="M33.5506 83.4573L58.5703 69.8442L58.5154 39.4012L33.4958 53.0144L33.5506 83.4573Z" fill="#BB2C2E"/>
<path d="M87.9257 125.812L112.945 112.199L112.879 77.4741L87.8598 91.0873L87.9257 125.812Z" fill="#BB2C2E"/>
<path d="M87.8593 91.0873L112.879 77.4742L58.5691 69.8442L33.5494 83.4574L87.8593 91.0873Z" fill="#DB393C"/>
<path d="M-3.8147e-05 13.6132L0.296394 171.416L33.7145 176.115L33.6156 118.182L87.9255 125.812L87.8596 91.0873L33.5498 83.4574L33.4949 53.0144L88.8477 60.7981L88.7818 26.0846L-3.8147e-05 13.6132Z" fill="#EF4B4E"/>
<path d="M88.8475 60.7981L113.867 47.1849L113.812 12.4714L88.7816 26.0846L88.8475 60.7981Z" fill="#BB2C2E"/>
<path d="M88.7818 26.0845L113.812 12.4714L25.0197 0L0 13.6131L88.7818 26.0845Z" fill="#DB393C"/>
<path d="M126.666 189.179L151.685 175.566L158.953 151.797L133.933 165.411L126.666 189.179Z" fill="#C12B2D"/>
<path d="M178.156 137.811L203.176 124.198L168.923 119.378L143.893 132.992L178.156 137.811Z" fill="#DB393C"/>
<path d="M143.894 132.992L168.925 119.378L185.941 63.85L160.922 77.4631L143.894 132.992Z" fill="#C12B2D"/>
<path d="M139.536 33.2205L90.1334 184.041L126.669 189.201L133.937 165.433L188.247 173.117L195.602 198.938L232.16 204.076L182.154 39.2695L139.536 33.2205ZM178.147 137.811L143.894 132.992L160.922 77.4632L178.147 137.844" fill="#EF4B4E"/>
<path d="M232.16 204.01L257.18 190.397L207.173 25.5905L182.154 39.2146L232.16 204.01Z" fill="#C12C2D"/>
<path d="M182.152 39.2146L207.172 25.5905L164.565 19.6073L139.534 33.2204L182.152 39.2146Z" fill="#DB393C"/>
<path d="M244.387 47.9532L244.683 205.767L278.102 210.466L277.816 52.652L244.387 47.9532Z" fill="#EF4B4E"/>
<path d="M278.102 210.466L303.133 196.852L302.836 39.0388L277.817 52.652L278.102 210.466Z" fill="#BB2C2E"/>
<path d="M277.816 52.652L302.836 39.0388L269.407 34.3401L244.387 47.9532L277.816 52.652Z" fill="#DB393C"/>
<path d="M336.583 218.677L361.613 205.064L361.514 153.214L336.495 166.827L336.583 218.677Z" fill="#BB2C2E"/>
<path d="M336.43 135.264L361.461 121.651L361.384 81.064L336.353 94.6771L336.43 135.264Z" fill="#BB2C2E"/>
<path d="M361.493 138.788L386.523 125.175L361.46 121.651L336.429 135.264L361.493 138.788Z" fill="#DB393C"/>
<path d="M415.969 229.832L440.988 216.229L409.755 153.916L384.735 167.529L415.969 229.832Z" fill="#C12C2D"/>
<path d="M369.785 137.339L394.805 123.726L394.322 123.978L369.302 137.602L369.785 137.35" fill="#9C3F37"/>
<path d="M369.301 137.602L394.32 123.989C393.524 124.374 392.693 124.683 391.839 124.911L366.82 138.525C367.674 138.296 368.505 137.987 369.301 137.602Z" fill="#A14139"/>
<path d="M366.82 138.514L391.84 124.9C390.104 125.341 388.298 125.434 386.526 125.175L361.496 138.788C363.271 139.047 365.081 138.954 366.82 138.514Z" fill="#CD3739"/>
<path d="M361.363 64.3988L386.383 50.7856L327.901 42.5629L302.882 56.176L361.363 64.3988Z" fill="#DB393C"/>
<path d="M388.942 165.531L413.973 151.874C427.696 144.409 436.654 129.533 436.621 111.891C436.592 104.58 435.28 97.3304 432.746 90.4724L407.726 104.086C410.258 110.952 411.569 118.208 411.601 125.526C411.601 143.168 402.665 158.044 388.942 165.509" fill="#B8282A"/>
<path d="M407.723 104.129L432.742 90.5163C431.68 87.6308 430.414 84.8242 428.955 82.1179L403.935 95.7311C405.395 98.4374 406.66 101.244 407.723 104.129Z" fill="#BC2B2D"/>
<path d="M403.937 95.731L428.957 82.1179C427.735 79.8438 426.378 77.6442 424.895 75.5309L399.875 89.144C401.355 91.2599 402.711 93.4592 403.937 95.731Z" fill="#BF2729"/>
<path d="M399.875 89.1331L424.895 75.5199C423.509 73.5393 422.009 71.6406 420.404 69.8331L395.385 83.4463C396.987 85.2565 398.486 87.1551 399.875 89.1331Z" fill="#C42729"/>
<path d="M395.383 83.4463L420.402 69.8332C418.812 68.0211 417.114 66.3055 415.319 64.6953L390.3 78.3194C392.089 79.939 393.786 81.658 395.383 83.4683" fill="#CB2B2D"/>
<path d="M390.301 78.3194L415.32 64.7172C413.413 62.9937 411.396 61.3948 409.282 59.9307L384.263 73.5438C386.371 75.0104 388.388 76.6053 390.301 78.3194Z" fill="#D33234"/>
<path d="M384.263 73.5218L409.305 59.9087C406.724 58.1234 403.999 56.5554 401.159 55.2209L376.139 68.8231C378.977 70.1656 381.702 71.7371 384.285 73.5218" fill="#D33234"/>
<path d="M376.117 68.8231L401.137 55.2649C396.468 53.0654 391.493 51.5849 386.382 50.8735L361.362 64.4867C366.473 65.2028 371.447 66.6831 376.117 68.878" fill="#DB393B"/>
<path d="M361.362 64.3988L302.881 56.176L303.166 213.99L336.584 218.677L336.497 166.827L352.36 169.022L380.037 224.759L415.969 229.82L384.735 167.507C400.808 160.92 411.632 144.914 411.599 125.526C411.501 95.5553 389.138 68.2961 361.362 64.3988ZM336.431 135.264L336.354 94.6441L361.417 98.1682C370.606 99.4636 378.148 109.322 378.17 120.816C378.192 132.311 370.683 140.051 361.494 138.755L336.431 135.231" fill="#EF4B4E"/>
<path d="M15.414 335.018L40.4336 321.404L40.3567 275.581L15.3261 289.194L15.414 335.018Z" fill="#BB2C2E"/>
<path d="M44.6921 281.696L69.7227 268.083L40.3336 263.955L15.303 277.557L44.6921 281.696Z" fill="#DB393B"/>
<path d="M15.3053 277.557L40.3359 263.955L40.2372 209.656L15.2066 223.269L15.3053 277.557Z" fill="#BB2C2E"/>
<path d="M57.9999 279.654L83.0195 266.041C82.8 266.161 82.5804 266.282 82.3499 266.392L57.3303 280.005L57.9999 279.654Z" fill="#9C3F37"/>
<path d="M57.2967 280.005L82.3164 266.392C81.1814 266.946 79.9933 267.383 78.7704 267.698L53.7507 281.312C54.9731 280.995 56.161 280.557 57.2967 280.005Z" fill="#CD3739"/>
<path d="M53.7499 281.311L78.7695 267.698C75.8092 268.423 72.7345 268.554 69.7234 268.083L44.7038 281.696C47.7149 282.167 50.7896 282.036 53.7499 281.311Z" fill="#CD3739"/>
<path d="M44.571 215.771L69.6016 202.158L28.7731 196.427L3.7535 210.029L44.571 215.771Z" fill="#DB393B"/>
<path d="M64.2123 290.292L89.232 276.679C91.4586 275.455 93.5208 273.954 95.3688 272.21C102.212 265.763 105.623 257.02 105.601 245.983C105.635 240.527 104.702 235.107 102.845 229.977L77.8254 243.59C79.6773 248.722 80.6101 254.14 80.581 259.596C80.581 270.641 77.1667 279.379 70.3382 285.813C68.4971 287.563 66.4382 289.068 64.2123 290.292Z" fill="#B8282A"/>
<path d="M77.8241 243.59L102.844 229.977C102.138 228.049 101.294 226.174 100.319 224.367L75.2991 237.98C76.2699 239.789 77.1136 241.664 77.8241 243.59Z" fill="#BC2B2D"/>
<path d="M75.3007 237.98L100.32 224.367C99.4693 222.791 98.5272 221.266 97.4989 219.8L72.4683 233.413C73.5002 234.879 74.4459 236.404 75.3007 237.98Z" fill="#BF2729"/>
<path d="M72.467 233.413L97.5195 219.8C96.8169 218.801 96.0704 217.824 95.3239 216.858C94.9506 216.408 94.5773 215.957 94.226 215.529L69.2064 229.142C69.5907 229.571 69.9639 230.021 70.3043 230.471C71.0947 231.437 71.8412 232.414 72.4999 233.413" fill="#CB2B2D"/>
<path d="M69.1093 229.142L94.1289 215.529C92.9949 214.24 91.789 213.016 90.5171 211.863L65.4865 225.476C66.762 226.629 67.9715 227.853 69.1093 229.142Z" fill="#D33234"/>
<path d="M65.485 225.476L90.5156 211.863C89.23 210.71 87.8733 209.639 86.4536 208.657L61.434 222.27C62.8521 223.25 64.2053 224.321 65.485 225.476Z" fill="#D33234"/>
<path d="M61.4335 222.27L86.4531 208.657C84.7341 207.467 82.9203 206.421 81.0298 205.528L56.0102 219.141C57.9007 220.034 59.7145 221.08 61.4335 222.27Z" fill="#D33234"/>
<path d="M56.0131 219.141L81.0547 205.528C77.4314 203.825 73.5707 202.681 69.6043 202.136L44.5737 215.749C48.5364 216.283 52.3941 217.419 56.0131 219.119" fill="#DB393B"/>
<path d="M44.5738 215.771L3.75639 210.029L3.98689 333.404L15.4154 334.974L15.3275 289.15L44.7166 293.278C54.963 294.742 63.5041 292.239 70.34 285.769C77.1758 279.299 80.5901 270.56 80.5828 259.552C80.709 248.923 77.0425 238.597 70.2412 230.427C63.9129 222.394 54.708 217.138 44.5738 215.771ZM15.3056 277.557L15.2068 223.269L44.5958 227.386C51.5593 228.319 57.8724 231.965 62.1611 237.53C66.8128 243.319 69.284 250.558 69.1434 257.983C69.1434 265.843 66.8415 272.009 62.238 276.481C57.6344 280.953 51.7793 282.687 44.6726 281.685L15.2727 277.546" fill="#EF4B4E"/>
<path d="M111.758 348.554L136.789 334.941L136.69 285.593L111.671 299.206L111.758 348.554Z" fill="#BB2C2E"/>
<path d="M111.648 287.569L136.668 273.956L136.58 223.192L111.55 236.805L111.648 287.569Z" fill="#BB2C2E"/>
<path d="M145.934 292.389L170.965 278.776L136.668 273.956L111.649 287.569L145.934 292.389Z" fill="#DB393B"/>
<path d="M183.613 358.654L208.633 345.041L180.616 290.171L155.596 303.784L183.613 358.654Z" fill="#C12C2D"/>
<path d="M157.68 290.478L182.711 276.865L182.063 277.195L157.044 290.808L157.68 290.478Z" fill="#9C3F37"/>
<path d="M157.046 290.808L182.055 277.195C181.002 277.716 179.898 278.129 178.761 278.424L153.742 292.037C154.879 291.742 155.982 291.33 157.035 290.808" fill="#A14139"/>
<path d="M153.742 292.037L178.762 278.424C176.213 279.058 173.563 279.178 170.967 278.776L145.936 292.389C148.536 292.792 151.19 292.673 153.742 292.037Z" fill="#CD3739"/>
<path d="M145.824 229.999L170.844 216.386L125.119 209.963L100.099 223.576L145.824 229.999Z" fill="#DB393B"/>
<path d="M164.4 300.787L189.42 287.174C192.883 285.254 195.91 282.637 198.312 279.489C202.923 273.634 205.221 266.527 205.207 258.169C205.23 253.185 204.364 248.237 202.649 243.557L177.662 257.203C179.366 261.89 180.232 266.84 180.22 271.826C180.22 280.17 177.922 287.276 173.325 293.146C170.924 296.294 167.896 298.911 164.433 300.831" fill="#B8282A"/>
<path d="M177.664 257.203L202.684 243.601C202 241.741 201.186 239.933 200.246 238.189L175.227 251.791C176.162 253.537 176.976 255.345 177.664 257.203Z" fill="#BC2B2D"/>
<path d="M175.191 251.791L200.211 238.189C199.368 236.614 198.429 235.093 197.4 233.633L172.37 247.246C173.4 248.703 174.342 250.221 175.191 251.791Z" fill="#BF2729"/>
<path d="M172.369 247.246L197.422 233.633C196.708 232.623 195.951 231.623 195.138 230.635C194.754 230.163 194.359 229.702 193.964 229.252L168.878 242.865C169.273 243.315 169.669 243.777 170.053 244.249C170.854 245.237 171.623 246.236 172.325 247.246" fill="#CB2B2D"/>
<path d="M168.879 242.865L193.898 229.252C192.757 227.959 191.544 226.731 190.265 225.574L165.245 239.188C166.524 240.345 167.737 241.572 168.879 242.865Z" fill="#D33234"/>
<path d="M165.289 239.188L190.309 225.574C189.055 224.443 187.731 223.39 186.345 222.424L161.315 236.037C162.706 237.001 164.033 238.053 165.289 239.188Z" fill="#D33234"/>
<path d="M161.317 236.037L186.348 222.424C184.707 221.294 182.978 220.299 181.177 219.448L156.157 233.062C157.956 233.91 159.682 234.905 161.317 236.037Z" fill="#D33234"/>
<path d="M156.156 233.062L181.176 219.449C177.906 217.914 174.423 216.881 170.845 216.386L145.826 229.999C149.404 230.494 152.886 231.527 156.156 233.062Z" fill="#DB393B"/>
<path d="M145.826 229.999L100.101 223.576L100.332 346.951L111.793 348.554L111.705 299.206L143.63 303.707L170.549 356.821L183.613 358.654L155.597 303.762C162.634 302.628 168.964 298.826 173.272 293.146C177.883 287.291 180.181 280.184 180.166 271.826C180.19 261.726 176.613 251.949 170.077 244.249C163.38 236.081 155.297 231.331 145.826 229.999ZM111.65 287.569L111.552 236.805L145.826 241.658C152.135 242.543 157.529 245.771 162.008 251.341C166.392 256.646 168.781 263.319 168.76 270.201C168.76 277.14 166.538 282.79 162.096 287.152C160.024 289.263 157.472 290.84 154.658 291.748C151.843 292.657 148.85 292.869 145.936 292.367L111.65 287.547" fill="#EF4B4E"/>
<path d="M199.709 237.574L199.939 360.948L211.379 362.551L211.148 239.177L199.709 237.574Z" fill="#EF4B4E"/>
<path d="M211.379 362.551L236.398 348.938L236.168 225.574L211.148 239.177L211.379 362.551Z" fill="#BB2C2E"/>
<path d="M211.148 239.177L236.168 225.575L224.74 223.961L199.709 237.574L211.148 239.177Z" fill="#DB393B"/>
<path d="M248.934 367.832L273.953 354.219L273.767 253.756L248.747 267.369L248.934 367.832Z" fill="#BB2C2E"/>
<path d="M247.066 244.227L272.086 230.614L262.293 229.241L237.274 242.854L247.066 244.227Z" fill="#DB393B"/>
<path d="M310.938 353.637L335.969 340.035L272.086 230.613L247.066 244.227L310.938 353.637Z" fill="#C12C2D"/>
<path d="M237.274 242.854L237.504 366.229L248.933 367.832L248.746 267.369L312.618 376.79L322.422 378.162L322.191 254.788L310.752 253.185L310.939 353.637L247.067 244.227L237.274 242.854Z" fill="#EF4B4E"/>
<path d="M322.422 378.162L347.441 364.549L347.211 241.175L322.191 254.788L322.422 378.162Z" fill="#BB2C2E"/>
<path d="M322.191 254.788L347.211 241.175L335.782 239.572L310.752 253.185L322.191 254.788Z" fill="#DB393B"/>
<path d="M385.286 387L410.316 373.387L410.108 261.638L385.077 275.251L385.286 387Z" fill="#BB2C2E"/>
<path d="M338.516 257.082L338.538 268.708L373.647 273.649L373.856 385.386L385.284 387L385.076 275.251L420.195 280.181L420.173 268.555L338.516 257.082Z" fill="#EF4B4E"/>
<path d="M420.195 280.181L445.215 266.568L445.193 254.942L420.173 268.555L420.195 280.181Z" fill="#A41F20"/>
<path d="M420.176 268.555L445.195 254.941L363.538 243.469L338.519 257.082L420.176 268.555Z" fill="#DB393B"/>
</svg>
