<?xml version="1.0" encoding="utf-8"?><svg viewBox="0 0 65 65" xmlns="http://www.w3.org/2000/svg" xmlns:xlink="http://www.w3.org/1999/xlink"><style>:root>svg{display:none}:root>svg:target{display:block}</style><svg fill="none" viewBox="0 0 18 18" id="icon-clock" xmlns="http://www.w3.org/2000/svg"><path d="M9 17A8 8 0 109 1a8 8 0 000 16z" stroke="#fff" stroke-linecap="round" stroke-linejoin="round"/><path d="M9 4.2V9l3.2 1.6" stroke="#fff" stroke-linecap="round" stroke-linejoin="round"/></svg><svg fill="none" viewBox="0 0 16 18" id="icon-home" xmlns="http://www.w3.org/2000/svg"><path d="M.8 6.6L8 1l7.2 5.6v8.8a1.6 1.6 0 01-1.6 1.6H2.4a1.6 1.6 0 01-1.6-1.6V6.6z" stroke="var(--icon-color, white)" stroke-linecap="round" stroke-linejoin="round"/><path d="M5.602 17V9h4.8v8" stroke="var(--icon-color, white)" stroke-linecap="round" stroke-linejoin="round"/></svg><svg fill="none" viewBox="0 0 65 65" id="icon-medal" xmlns="http://www.w3.org/2000/svg"><path d="M50.738 39.18l4.53-3.57-.026-5.771 2.52-5.195-2.507-5.195.026-5.77-4.53-3.584-2.482-5.207-5.63-1.267L38.135 0l-5.63 1.318L26.888 0l-4.504 3.621-5.63 1.267-2.482 5.207-4.543 3.583.026 5.77-2.52 5.196 2.52 5.195-.026 5.77 4.53 3.583 1.817 3.826-7.357 15.776 8.713-1.33L22.012 65l7.627-16.365 2.853-.666 2.252.525L42.447 65l4.58-7.536 8.714 1.33-7.101-15.226 2.098-4.389zM21.77 60.56l-3.276-5.387-6.218.947L17.65 44.58l4.734 1.062 4.504 3.62L21.77 60.56zm10.735-14.753L27.4 47.01l-4.082-3.288L18.2 42.57l-2.252-4.734-4.12-3.25.026-5.246-2.29-4.71 2.29-4.72-.026-5.247 4.12-3.25L18.2 6.68l5.118-1.151L27.4 2.239l5.105 1.19 5.105-1.19 4.082 3.289 5.118 1.151 2.252 4.734 4.12 3.25-.025 5.246 2.29 4.71-2.29 4.708.025 5.246-4.12 3.25-2.252 4.734-5.118 1.152-4.082 3.288-5.105-1.19zm19.68 10.326l-6.22-.947-3.275 5.374-5.348-11.465.78.18 4.504-3.621 4.235-.947 5.323 11.426z" fill="#2F363D"/><path d="M32.507 6.513c-9.993 0-18.131 8.138-18.131 18.13 0 9.994 8.138 18.132 18.13 18.132 9.994-.013 18.132-8.138 18.132-18.131S42.5 6.513 32.507 6.513zm0 34.163c-8.842 0-16.033-7.19-16.033-16.032 0-8.842 7.191-16.033 16.033-16.033 8.841 0 16.032 7.191 16.032 16.033 0 8.841-7.19 16.032-16.032 16.032z" fill="#2F363D"/><path d="M46.133 20.216H35.717l-3.211-9.903-3.212 9.903H18.88l8.42 6.117-3.212 9.903 8.419-6.116 8.42 6.116-3.212-9.903 8.419-6.117zm-13.627 7.306l-4.44 3.225 1.689-5.22-4.44-3.225h5.476l1.69-5.22 1.688 5.22h5.477l-4.44 3.224 1.74 5.22-4.44-3.223z" fill="#2F363D"/></svg><svg fill="none" viewBox="0 0 18 18" id="icon-paperclip" xmlns="http://www.w3.org/2000/svg"><path d="M16.543 8.5L9.41 15.636a4.66 4.66 0 11-6.59-6.59L9.951 1.91a3.107 3.107 0 014.394 4.394l-7.142 7.134a1.554 1.554 0 01-2.197-2.197l6.591-6.583" stroke="#ADADAD" stroke-linecap="round" stroke-linejoin="round"/></svg><svg fill="none" viewBox="0 0 18 18" id="icon-phone" xmlns="http://www.w3.org/2000/svg"><path d="M16.983 12.98v2.408a1.607 1.607 0 01-1.75 1.606 15.89 15.89 0 01-6.929-2.465A15.657 15.657 0 013.487 9.71a15.89 15.89 0 01-2.465-6.96A1.606 1.606 0 012.62 1h2.409a1.606 1.606 0 011.605 1.38c.102.77.29 1.528.562 2.256a1.606 1.606 0 01-.361 1.694l-1.02 1.02a12.847 12.847 0 004.818 4.817l1.02-1.02a1.606 1.606 0 011.693-.36c.729.271 1.486.46 2.256.561a1.606 1.606 0 011.381 1.63z" stroke="#fff" stroke-linecap="round" stroke-linejoin="round"/></svg><svg fill="none" viewBox="0 0 65 65" id="icon-price" xmlns="http://www.w3.org/2000/svg"><path d="M8.025 17.266h0a1.117 1.117 0 001.116 1.115h0a1.115 1.115 0 10-1.116-1.115zm3.566-1.638a2.947 2.947 0 11-4.902 3.275 2.947 2.947 0 014.902-3.275zM24.375 25.49h0a8.234 8.234 0 008.225-8.224v0a8.225 8.225 0 10-8.225 8.225zM18.788 8.905a10.056 10.056 0 015.587-1.695 10.068 10.068 0 0110.056 10.057 10.058 10.058 0 01-17.167 7.11 10.056 10.056 0 011.524-15.472z" fill="#2F363D" stroke="#fff" stroke-width=".2"/><path d="M24.375 14.119h0a1.116 1.116 0 011.116 1.115v0a.916.916 0 001.83 0 2.952 2.952 0 00-1.964-2.778l-.066-.023v-.245a.915.915 0 10-1.832 0v.244l-.066.024a2.947 2.947 0 00.982 5.725V14.12zm0 0a1.116 1.116 0 100 2.231v-2.231zm-.916 7.98v.245a.915.915 0 101.832 0v-.245l.066-.024a2.947 2.947 0 00-.982-5.725l-.916 5.748zm0 0l-.066-.024m.066.023l-.066-.023m0 0a2.952 2.952 0 01-1.965-2.778h-.1m2.065 2.778l.982-3.894a1.115 1.115 0 11-1.116 1.116.916.916 0 10-1.83 0h-.1m0 0a3.052 3.052 0 002.03 2.872m-2.03-2.872a1.016 1.016 0 112.03 0 1.016 1.016 0 101.016-1.016 3.047 3.047 0 01-2.627-4.588l1.611 8.476m0 0v.175a1.016 1.016 0 002.032 0v-.175a3.047 3.047 0 00.947-5.201l-2.979 5.201zM9.14 29.553h20.313a.916.916 0 110 1.831H9.141a.916.916 0 010-1.83zM9.14 33.616h20.313a.916.916 0 110 1.83H9.141a.916.916 0 010-1.83zM9.14 37.678h20.313a.916.916 0 110 1.831H9.141a.916.916 0 010-1.83zM9.14 41.74h20.313a.916.916 0 110 1.832H9.141a.916.916 0 010-1.831zM9.14 45.803h20.313a.916.916 0 110 1.831H9.141a.916.916 0 010-1.83zM35.547 45.803h4.062a.916.916 0 010 1.831h-4.062a.916.916 0 110-1.83zM9.14 49.866h20.313a.916.916 0 110 1.83H9.141a.916.916 0 010-1.83zM35.547 49.866h4.062a.916.916 0 010 1.83h-4.062a.916.916 0 110-1.83zM38.494 30.472h0a8.239 8.239 0 006.167 7.964l.125.032V22.475l-.125.033a8.239 8.239 0 00-6.167 7.964zm8.123 8.125v.1H46.719a8.225 8.225 0 100-16.45H46.617v16.35zM41.132 22.11a10.056 10.056 0 015.587-1.695 10.067 10.067 0 0110.056 10.057 10.056 10.056 0 11-15.643-8.362z" fill="#2F363D" stroke="#fff" stroke-width=".2"/><mask id="fa" fill="#fff"><path d="M62.672 58.52l-4.696-9.757a1.01 1.01 0 00-.172-.359l-1.676-3.482a1.014 1.014 0 00-1.36-.473l-.913.444-.822-1.685a14.217 14.217 0 00-6.31-26.958h-.004V3.047a1.016 1.016 0 00-1.016-1.016H3.047A1.016 1.016 0 002.03 3.047V56.98a1.016 1.016 0 00.31.73l3.047 2.943a1.016 1.016 0 001.411 0l2.342-2.261 2.341 2.26a1.016 1.016 0 001.411 0l2.341-2.26 2.342 2.26a1.015 1.015 0 001.41 0l2.342-2.26 2.341 2.26a1.016 1.016 0 001.412 0l2.34-2.26 2.342 2.26a1.016 1.016 0 001.411 0l2.342-2.26 2.341 2.26a1.016 1.016 0 001.411 0l2.341-2.26 2.342 2.26a1.015 1.015 0 001.41 0l3.048-2.941a1.016 1.016 0 00.31-.731V44.688h.004a14.161 14.161 0 004.427-.707l.879 1.803-.914.444a1.015 1.015 0 00-.47 1.354l6.547 13.602a3.047 3.047 0 005.48-2.665zm-17.984-1.971l-2.032 1.961-2.341-2.26a1.015 1.015 0 00-1.411 0l-2.342 2.26-2.34-2.26a1.015 1.015 0 00-1.412 0l-2.341 2.26-2.342-2.26a1.015 1.015 0 00-1.41 0l-2.342 2.26-2.341-2.26a1.015 1.015 0 00-1.411 0l-2.342 2.26-2.341-2.26a1.015 1.015 0 00-1.411 0l-2.341 2.26-2.342-2.26a1.015 1.015 0 00-1.41 0l-2.342 2.26-2.032-1.961V4.063h40.626v12.333c-.698.101-1.386.254-2.06.457a3.049 3.049 0 00-4.468-2.272 3.047 3.047 0 00-.549 4.983 14.2 14.2 0 00.327 22.077h-2.391a1.016 1.016 0 100 2.03h4.062a1.014 1.014 0 00.84-.445 14.103 14.103 0 004.239 1.315V56.55zm-5.252-38.284a1.014 1.014 0 111.11-.604l.005.002a14.15 14.15 0 00-1.115.602zm7.287 24.391A12.188 12.188 0 1158.911 30.47a12.201 12.201 0 01-12.188 12.187zm6.191 4.956l.916-.446h.003l.907-.443.881 1.83-1.826.89-.88-1.83zm7.977 12.569a1.016 1.016 0 01-1.87.118l-4.345-9.026 1.826-.89 4.342 9.022a1.009 1.009 0 01.047.776z"/></mask><path d="M62.672 58.52l-4.696-9.757a1.01 1.01 0 00-.172-.359l-1.676-3.482a1.014 1.014 0 00-1.36-.473l-.913.444-.822-1.685a14.217 14.217 0 00-6.31-26.958h-.004V3.047a1.016 1.016 0 00-1.016-1.016H3.047A1.016 1.016 0 002.03 3.047V56.98a1.016 1.016 0 00.31.73l3.047 2.943a1.016 1.016 0 001.411 0l2.342-2.261 2.341 2.26a1.016 1.016 0 001.411 0l2.341-2.26 2.342 2.26a1.015 1.015 0 001.41 0l2.342-2.26 2.341 2.26a1.016 1.016 0 001.412 0l2.34-2.26 2.342 2.26a1.016 1.016 0 001.411 0l2.342-2.26 2.341 2.26a1.016 1.016 0 001.411 0l2.341-2.26 2.342 2.26a1.015 1.015 0 001.41 0l3.048-2.941a1.016 1.016 0 00.31-.731V44.688h.004a14.161 14.161 0 004.427-.707l.879 1.803-.914.444a1.015 1.015 0 00-.47 1.354l6.547 13.602a3.047 3.047 0 005.48-2.665h0zm-17.984-1.971l-2.032 1.961-2.341-2.26a1.015 1.015 0 00-1.411 0l-2.342 2.26-2.34-2.26a1.015 1.015 0 00-1.412 0l-2.341 2.26-2.342-2.26a1.015 1.015 0 00-1.41 0l-2.342 2.26-2.341-2.26a1.015 1.015 0 00-1.411 0l-2.342 2.26-2.341-2.26a1.015 1.015 0 00-1.411 0l-2.341 2.26-2.342-2.26a1.015 1.015 0 00-1.41 0l-2.342 2.26-2.032-1.961V4.063h40.626v12.333c-.698.101-1.386.254-2.06.457a3.049 3.049 0 00-4.468-2.272 3.047 3.047 0 00-.549 4.983 14.2 14.2 0 00.327 22.077h-2.391a1.016 1.016 0 100 2.03h4.062a1.014 1.014 0 00.84-.445 14.103 14.103 0 004.239 1.315V56.55zm-5.252-38.284a1.014 1.014 0 111.11-.604l.005.002a14.15 14.15 0 00-1.115.602zm7.287 24.391A12.188 12.188 0 1158.911 30.47a12.201 12.201 0 01-12.188 12.187zm6.191 4.956l.916-.446h.003l.907-.443.881 1.83-1.826.89-.88-1.83zm7.977 12.569a1.016 1.016 0 01-1.87.118l-4.345-9.026 1.826-.89 4.342 9.022a1.009 1.009 0 01.047.776h0z" fill="#2F363D" stroke="#fff" stroke-width=".4" mask="url(#fa)"/></svg><svg fill="none" viewBox="0 0 65 65" id="icon-rocket" xmlns="http://www.w3.org/2000/svg"><g clip-path="url(#gclip0)" fill="#2F363D" stroke="#fff" stroke-width=".4"><path d="M38.647 22.344a6.155 6.155 0 01-6.148 6.148 6.155 6.155 0 01-6.147-6.148 6.155 6.155 0 016.147-6.148 6.155 6.155 0 016.148 6.148zm-2.14 0a4.013 4.013 0 00-4.008-4.009 4.013 4.013 0 00-4.008 4.009 4.013 4.013 0 004.008 4.008 4.013 4.013 0 004.009-4.008z"/><path d="M23.003 57.27l.047.206.203-.058c1.736-.497 3.099-2.069 3.099-3.844V48.804h-1.47a1.07 1.07 0 01-1.06-.928l-.198.026.198-.026-.53-3.977-.023-.173h-5.762a3.854 3.854 0 01-3.85-3.85c0-.918.329-1.807.926-2.505 0 0 0 0 0 0l6.725-7.846.058-.067-.012-.09-.653-4.902C19.419 14.845 24.1 5.063 31.949.353a1.07 1.07 0 011.1 0c7.847 4.71 12.531 14.49 11.25 24.113l-.654 4.903-.012.088.058.068 6.725 7.846c.597.698.926 1.587.926 2.505a3.854 3.854 0 01-3.85 3.85H41.73l-.023.173-.53 3.977a1.07 1.07 0 01-1.06.928h-1.47V53.574c0 1.775 1.363 3.347 3.1 3.844l.202.058.047-.205a6.161 6.161 0 015.624-4.756l.117-.007.052-.105c1.618-3.346 5.404-5.44 9.325-4.887l.028-.198-.028.198c2.078.293 4.02 1.46 5.435 3.07 1.415 1.612 2.288 3.651 2.25 5.674-.09 4.622-4.182 8.54-8.94 8.54H38.212a1.07 1.07 0 010-2.14h17.646c3.615 0 6.734-2.94 6.802-6.44v0c.029-1.495-.675-3.033-1.752-4.246-1.078-1.213-2.551-2.123-4.093-2.34-2.656-.375-5.306.866-6.7 2.992l-.135.207.23.09a6.143 6.143 0 012.124 1.383 1.07 1.07 0 01-1.513 1.512c-.713-.714-1.636-1.137-2.83-1.174h0-.006a4.012 4.012 0 00-4.006 4.008c0 .59-.48 1.07-1.07 1.07-3.475 0-6.401-2.825-6.401-6.148V48.804H28.49V53.574c0 3.323-2.926 6.148-6.402 6.148a1.07 1.07 0 01-1.07-1.07 4.013 4.013 0 00-4.008-4.008v0h-.007c-1.266.044-2.15.497-2.826 1.174a1.066 1.066 0 01-1.512 0 1.07 1.07 0 01-.002-1.512 6.144 6.144 0 012.125-1.384l.23-.09-.135-.206c-1.394-2.127-4.045-3.367-6.7-2.992-1.514.213-2.973 1.109-4.05 2.302s-1.795 2.706-1.795 4.177c0 3.5 3.182 6.547 6.801 6.547h17.647a1.07 1.07 0 010 2.14H9.14C4.118 64.8.2 60.602.2 56.113c0-1.989.893-3.994 2.308-5.578 1.415-1.584 3.339-2.732 5.377-3.02 3.919-.553 7.706 1.541 9.325 4.888l.052.105.117.007a6.16 6.16 0 015.624 4.756zM48.79 38.764h0l-5.247-6.121-.29-.34-.06.443-1.149 8.615-.03.227h5.477a1.712 1.712 0 001.3-2.824zM32.61 2.603l-.11-.073-.11.072c-1.954 1.285-3.705 2.948-5.164 4.896l-.24.32h11.029l-.24-.32c-1.46-1.948-3.21-3.611-5.165-4.896zm-6.867 7.354h-.118l-.057.102c-2.41 4.333-3.386 9.32-2.746 14.124h0l2.298 17.23.023.174H39.857l.023-.174 2.298-17.23c.64-4.805-.335-9.79-2.746-14.124l-.057-.102H25.742zm-9.535 28.806h0a1.713 1.713 0 001.3 2.824h5.477l-.03-.227-1.15-8.615-.058-.443-.291.34-5.248 6.12zm9.448 4.963h-.228l.03.226.339 2.54.023.173H39.18l.023-.174.339-2.539.03-.226H25.655z"/><path d="M33.569 63.73a1.07 1.07 0 11-2.14 0 1.07 1.07 0 012.14 0z"/></g><defs><clipPath id="gclip0"><path fill="#fff" d="M0 0h65v65H0z"/></clipPath></defs></svg><svg fill="none" viewBox="0 0 19 19" id="icon-search" xmlns="http://www.w3.org/2000/svg"><path d="M17.71 16.29l-3.4-3.39A7.92 7.92 0 0016 8a8 8 0 10-8 8 7.92 7.92 0 004.9-1.69l3.39 3.4a1.002 1.002 0 001.639-.325 1 1 0 00-.219-1.095zM2 8a6 6 0 1112 0A6 6 0 012 8z" fill="#2F363D"/></svg><svg fill="none" viewBox="0 0 65 65" id="icon-sewing-machine" xmlns="http://www.w3.org/2000/svg"><g clip-path="url(#iclip0)" fill="#2F363D"><path d="M58.653 39.736h2.412A3.94 3.94 0 0065 35.801V21.544a3.94 3.94 0 00-3.936-3.935h-2.412v-2.405a8.104 8.104 0 00-5.094-7.513V3.412a3.412 3.412 0 00-6.824 0v3.697H18.266V3.412a3.413 3.413 0 00-6.824 0v4.23a8.104 8.104 0 00-5.23 7.562v7.455a3.433 3.433 0 002.77 3.363 5.86 5.86 0 005.063 4.98v3.844a.889.889 0 001.777 0v-3.87a5.859 5.859 0 004.901-4.955 3.433 3.433 0 002.771-3.363 3.785 3.785 0 013.781-3.781h7.775a6.328 6.328 0 016.32 6.32V44.5H10.284a3.94 3.94 0 00-3.936 3.936v9.107H3.73a3.728 3.728 0 100 7.457h57.543a3.729 3.729 0 000-7.457h-2.62V39.736zm2.412-20.35a2.161 2.161 0 012.158 2.159V35.8a2.16 2.16 0 01-2.158 2.158h-2.412V19.386h2.412zM48.512 3.412a1.634 1.634 0 113.27 0v3.697h-3.27V3.412zM13.22 7.109V3.412a1.635 1.635 0 013.27 0v3.697h-3.27zm1.715 22.168h-.16a4.085 4.085 0 01-3.98-3.189h8.12a4.085 4.085 0 01-3.98 3.187v.002zM35.05 17.1h-7.774a5.565 5.565 0 00-5.558 5.558 1.652 1.652 0 01-1.65 1.65H9.64a1.653 1.653 0 01-1.65-1.65v-7.455a6.327 6.327 0 016.32-6.317h36.246a6.327 6.327 0 016.32 6.317V44.5H43.147V25.198A8.107 8.107 0 0035.05 17.1zm28.173 44.17a1.953 1.953 0 01-1.951 1.95H3.729a1.95 1.95 0 110-3.902h57.543a1.953 1.953 0 011.951 1.951zM8.125 57.54v-9.106a2.16 2.16 0 012.159-2.159h46.592v11.266H8.126z"/><path d="M47.335 32.12h5.35a.888.888 0 100-1.777h-5.35a.888.888 0 100 1.777zM47.335 27.58h5.35a.888.888 0 100-1.776h-5.35a.888.888 0 100 1.777zM47.335 23.041h5.35a.888.888 0 100-1.777h-5.35a.888.888 0 100 1.777zM47.335 18.502h5.35a.888.888 0 100-1.777h-5.35a.889.889 0 100 1.777zM49.608 41.198h.81a3.159 3.159 0 100-6.316h-.81a3.158 3.158 0 000 6.316zm0-4.54h.81a1.38 1.38 0 110 2.763h-.81a1.38 1.38 0 010-2.762z"/></g><defs><clipPath id="iclip0"><path fill="#fff" d="M0 0h65v65H0z"/></clipPath></defs></svg></svg>