<?xml version="1.0" encoding="utf-8"?><svg viewBox="0 0 19 19" xmlns="http://www.w3.org/2000/svg" xmlns:xlink="http://www.w3.org/1999/xlink"><style>:root>svg{display:none}:root>svg:target{display:block}</style><svg fill="none" viewBox="0 0 18 18" id="icon-clock" xmlns="http://www.w3.org/2000/svg"><path d="M9 17A8 8 0 109 1a8 8 0 000 16z" stroke="#fff" stroke-linecap="round" stroke-linejoin="round"/><path d="M9 4.2V9l3.2 1.6" stroke="#fff" stroke-linecap="round" stroke-linejoin="round"/></svg><svg fill="none" viewBox="0 0 16 18" id="icon-home" xmlns="http://www.w3.org/2000/svg"><path d="M.8 6.6L8 1l7.2 5.6v8.8a1.6 1.6 0 01-1.6 1.6H2.4a1.6 1.6 0 01-1.6-1.6V6.6z" stroke="#fff" stroke-linecap="round" stroke-linejoin="round"/><path d="M5.602 17V9h4.8v8" stroke="#fff" stroke-linecap="round" stroke-linejoin="round"/></svg><svg fill="none" viewBox="0 0 18 18" id="icon-phone" xmlns="http://www.w3.org/2000/svg"><path d="M16.983 12.98v2.408a1.607 1.607 0 01-1.75 1.606 15.89 15.89 0 01-6.929-2.465A15.657 15.657 0 013.487 9.71a15.89 15.89 0 01-2.465-6.96A1.606 1.606 0 012.62 1h2.409a1.606 1.606 0 011.605 1.38c.102.77.29 1.528.562 2.256a1.606 1.606 0 01-.361 1.694l-1.02 1.02a12.847 12.847 0 004.818 4.817l1.02-1.02a1.606 1.606 0 011.693-.36c.729.271 1.486.46 2.256.561a1.606 1.606 0 011.381 1.63z" stroke="#fff" stroke-linecap="round" stroke-linejoin="round"/></svg><svg fill="none" viewBox="0 0 19 19" id="icon-search" xmlns="http://www.w3.org/2000/svg"><path d="M17.71 16.29l-3.4-3.39A7.92 7.92 0 0016 8a8 8 0 10-8 8 7.92 7.92 0 004.9-1.69l3.39 3.4a1.002 1.002 0 001.639-.325 1 1 0 00-.219-1.095zM2 8a6 6 0 1112 0A6 6 0 012 8z" fill="#2F363D"/></svg></svg>