<svg width="65" height="65" viewBox="0 0 65 65" fill="none" xmlns="http://www.w3.org/2000/svg">
<path d="M8.025 17.2656L8.025 17.2657C8.02533 17.5615 8.14297 17.845 8.35209 18.0542C8.56122 18.2633 8.84476 18.3809 9.14051 18.3812H9.14063C9.36128 18.3812 9.57697 18.3158 9.76043 18.1932C9.9439 18.0706 10.0869 17.8964 10.1713 17.6926C10.2558 17.4887 10.2779 17.2644 10.2348 17.048C10.1918 16.8316 10.0855 16.6328 9.92949 16.4768C9.77347 16.3207 9.57468 16.2145 9.35827 16.1714C9.14186 16.1284 8.91755 16.1505 8.71369 16.2349C8.50984 16.3194 8.3356 16.4624 8.21302 16.6458C8.09043 16.8293 8.025 17.045 8.025 17.2656ZM11.5909 15.6284C11.9146 16.113 12.0875 16.6827 12.0875 17.2655C12.0866 18.0468 11.7759 18.7959 11.2234 19.3484C10.6709 19.9009 9.92183 20.2116 9.14051 20.2125C8.55772 20.2125 7.98801 20.0396 7.50343 19.7159C7.01882 19.3921 6.64111 18.9318 6.41807 18.3933C6.19503 17.8549 6.13667 17.2624 6.25037 16.6907C6.36408 16.1191 6.64474 15.594 7.05687 15.1819C7.469 14.7697 7.99408 14.4891 8.56572 14.3754C9.13736 14.2617 9.72988 14.32 10.2683 14.5431C10.8068 14.7661 11.2671 15.1438 11.5909 15.6284Z" fill="#2F363D" stroke="white" stroke-width="0.2"/>
<path d="M24.375 25.4906H24.3751C26.5557 25.4882 28.6464 24.6208 30.1883 23.0789C31.7302 21.537 32.5976 19.4464 32.6 17.2657V17.2656C32.6 15.6389 32.1176 14.0487 31.2138 12.6961C30.3101 11.3435 29.0255 10.2892 27.5226 9.66672C26.0197 9.04419 24.3659 8.8813 22.7704 9.19867C21.1749 9.51603 19.7093 10.2994 18.5591 11.4497C17.4088 12.6 16.6254 14.0655 16.308 15.661C15.9907 17.2565 16.1536 18.9103 16.7761 20.4132C17.3986 21.9161 18.4528 23.2007 19.8054 24.1045C21.158 25.0082 22.7483 25.4906 24.375 25.4906ZM18.7881 8.90416C20.4418 7.79917 22.386 7.20939 24.375 7.20938C27.0411 7.21242 29.5972 8.2729 31.4825 10.1582C33.3677 12.0434 34.4282 14.5996 34.4313 17.2657C34.4312 19.2546 33.8414 21.1989 32.7365 22.8526C31.6315 24.5063 30.0609 25.7953 28.2234 26.5564C26.3858 27.3175 24.3638 27.5167 22.4131 27.1286C20.4624 26.7406 18.6706 25.7829 17.2642 24.3765C15.8578 22.9701 14.9 21.1782 14.512 19.2275C14.124 17.2768 14.3231 15.2548 15.0842 13.4173C15.8454 11.5797 17.1343 10.0092 18.7881 8.90416Z" fill="#2F363D" stroke="white" stroke-width="0.2"/>
<path d="M24.375 14.1188H24.3751C24.6709 14.1191 24.9544 14.2367 25.1635 14.4458C25.3727 14.655 25.4903 14.9385 25.4906 15.2343V15.2344C25.4906 15.4772 25.5871 15.7101 25.7588 15.8818C25.9305 16.0535 26.1634 16.15 26.4062 16.15C26.6491 16.15 26.882 16.0535 27.0537 15.8818C27.2254 15.7101 27.3218 15.4773 27.3219 15.2345C27.3211 14.6253 27.1318 14.0313 26.7801 13.5339C26.4283 13.0365 25.9313 12.6602 25.3572 12.4564L25.2906 12.4328V12.3622V12.1875C25.2906 11.9447 25.1942 11.7118 25.0224 11.5401C24.8507 11.3683 24.6178 11.2719 24.375 11.2719C24.1322 11.2719 23.8993 11.3683 23.7276 11.5401C23.5558 11.7118 23.4594 11.9447 23.4594 12.1875V12.3622V12.4329L23.3927 12.4565C22.7376 12.6884 22.1856 13.1444 21.8341 13.7439C21.4826 14.3434 21.3543 15.0478 21.4718 15.7327C21.5893 16.4177 21.9451 17.039 22.4764 17.4871C23.0076 17.9351 23.6801 18.181 24.375 18.1813V14.1188ZM24.375 14.1188C24.0791 14.1188 23.7954 14.2363 23.5861 14.4455C23.3769 14.6547 23.2594 14.9385 23.2594 15.2344C23.2594 15.5303 23.3769 15.814 23.5861 16.0232C23.7953 16.2325 24.0791 16.35 24.375 16.35L24.375 14.1188ZM23.4594 22.0984V22.1691V22.3438C23.4594 22.5866 23.5558 22.8195 23.7276 22.9912C23.8993 23.1629 24.1322 23.2594 24.375 23.2594C24.6178 23.2594 24.8507 23.1629 25.0224 22.9912C25.1942 22.8195 25.2906 22.5866 25.2906 22.3438V22.1691V22.0984L25.3573 22.0748C26.0124 21.8429 26.5644 21.3869 26.9159 20.7874C27.2674 20.1879 27.3957 19.4835 27.2782 18.7985C27.1607 18.1136 26.8049 17.4922 26.2736 17.0442C25.7424 16.5962 25.0699 16.3503 24.375 16.35L23.4594 22.0984ZM23.4594 22.0984L23.3928 22.0748M23.4594 22.0984L23.3928 22.0748M23.3928 22.0748C22.8187 21.8711 22.3217 21.4947 21.9699 20.9973C21.6182 20.5 21.4289 19.9059 21.4281 19.2967L21.3281 19.2969M23.3928 22.0748L24.375 18.1813C24.5957 18.1813 24.8114 18.2467 24.9948 18.3693C25.1783 18.4919 25.3213 18.6661 25.4057 18.8699C25.4901 19.0738 25.5122 19.2981 25.4692 19.5145C25.4261 19.7309 25.3199 19.9297 25.1639 20.0857C25.0078 20.2418 24.8091 20.348 24.5926 20.3911C24.3762 20.4341 24.1519 20.412 23.9481 20.3276C23.7442 20.2431 23.57 20.1001 23.4474 19.9167C23.3248 19.7332 23.2594 19.5175 23.2594 19.2969C23.2594 19.054 23.1629 18.8211 22.9912 18.6494C22.8195 18.4777 22.5866 18.3812 22.3438 18.3812C22.1009 18.3812 21.868 18.4777 21.6963 18.6494C21.5246 18.8211 21.4281 19.054 21.4281 19.2969H21.3281M21.3281 19.2969C21.3289 19.9267 21.5246 20.5409 21.8883 21.0551C22.2519 21.5693 22.7658 21.9584 23.3594 22.1691M21.3281 19.2969C21.3281 19.0275 21.4351 18.7692 21.6256 18.5787C21.8161 18.3883 22.0744 18.2812 22.3438 18.2812C22.6131 18.2812 22.8714 18.3883 23.0619 18.5787C23.2524 18.7692 23.3594 19.0275 23.3594 19.2969C23.3594 19.4977 23.4189 19.6941 23.5305 19.8611C23.6421 20.0281 23.8008 20.1583 23.9863 20.2352C24.1719 20.3121 24.3761 20.3322 24.5731 20.293C24.7702 20.2538 24.9511 20.1571 25.0932 20.015C25.2352 19.873 25.3319 19.692 25.3711 19.495C25.4103 19.298 25.3902 19.0938 25.3133 18.9082C25.2364 18.7226 25.1063 18.564 24.9393 18.4524C24.7722 18.3408 24.5759 18.2812 24.375 18.2812C23.6565 18.281 22.9612 18.0267 22.4119 17.5635C21.8626 17.1003 21.4947 16.4578 21.3732 15.7496C21.2517 15.0415 21.3844 14.3131 21.7478 13.6933L23.3594 22.1691M23.3594 22.1691V22.3438C23.3594 22.6131 23.4664 22.8714 23.6568 23.0619C23.8473 23.2524 24.1056 23.3594 24.375 23.3594C24.6444 23.3594 24.9027 23.2524 25.0932 23.0619C25.2836 22.8714 25.3906 22.6131 25.3906 22.3438V22.1691C26.068 21.9293 26.6387 21.4578 27.0022 20.838C27.3656 20.2181 27.4983 19.4898 27.3768 18.7816C27.2553 18.0734 26.8874 17.431 26.3381 16.9677L23.3594 22.1691Z" fill="#2F363D" stroke="white" stroke-width="0.2"/>
<path d="M9.14062 29.5531H29.4531C29.696 29.5531 29.9289 29.6496 30.1006 29.8213C30.2723 29.993 30.3687 30.2259 30.3687 30.4688C30.3687 30.7116 30.2723 30.9445 30.1006 31.1162C29.9289 31.2879 29.696 31.3844 29.4531 31.3844H9.14062C8.89779 31.3844 8.66489 31.2879 8.49318 31.1162C8.32147 30.9445 8.225 30.7116 8.225 30.4688C8.225 30.2259 8.32147 29.993 8.49318 29.8213C8.66489 29.6496 8.89779 29.5531 9.14062 29.5531Z" fill="#2F363D" stroke="white" stroke-width="0.2"/>
<path d="M9.14062 33.6156H29.4531C29.696 33.6156 29.9289 33.7121 30.1006 33.8838C30.2723 34.0555 30.3687 34.2884 30.3687 34.5312C30.3687 34.7741 30.2723 35.007 30.1006 35.1787C29.9289 35.3504 29.696 35.4469 29.4531 35.4469H9.14062C8.89779 35.4469 8.66489 35.3504 8.49318 35.1787C8.32147 35.007 8.225 34.7741 8.225 34.5312C8.225 34.2884 8.32147 34.0555 8.49318 33.8838C8.66489 33.7121 8.89779 33.6156 9.14062 33.6156Z" fill="#2F363D" stroke="white" stroke-width="0.2"/>
<path d="M9.14062 37.6781H29.4531C29.696 37.6781 29.9289 37.7746 30.1006 37.9463C30.2723 38.118 30.3687 38.3509 30.3687 38.5938C30.3687 38.8366 30.2723 39.0695 30.1006 39.2412C29.9289 39.4129 29.696 39.5094 29.4531 39.5094H9.14062C8.89779 39.5094 8.66489 39.4129 8.49318 39.2412C8.32147 39.0695 8.225 38.8366 8.225 38.5938C8.225 38.3509 8.32147 38.118 8.49318 37.9463C8.66489 37.7746 8.89779 37.6781 9.14062 37.6781Z" fill="#2F363D" stroke="white" stroke-width="0.2"/>
<path d="M9.14062 41.7406H29.4531C29.696 41.7406 29.9289 41.8371 30.1006 42.0088C30.2723 42.1805 30.3687 42.4134 30.3687 42.6562C30.3687 42.8991 30.2723 43.132 30.1006 43.3037C29.9289 43.4754 29.696 43.5719 29.4531 43.5719H9.14062C8.89779 43.5719 8.66489 43.4754 8.49318 43.3037C8.32147 43.132 8.225 42.8991 8.225 42.6562C8.225 42.4134 8.32147 42.1805 8.49318 42.0088C8.66489 41.8371 8.89779 41.7406 9.14062 41.7406Z" fill="#2F363D" stroke="white" stroke-width="0.2"/>
<path d="M9.14062 45.8031H29.4531C29.696 45.8031 29.9289 45.8996 30.1006 46.0713C30.2723 46.243 30.3687 46.4759 30.3687 46.7188C30.3687 46.9616 30.2723 47.1945 30.1006 47.3662C29.9289 47.5379 29.696 47.6344 29.4531 47.6344H9.14062C8.89779 47.6344 8.66489 47.5379 8.49318 47.3662C8.32147 47.1945 8.225 46.9616 8.225 46.7188C8.225 46.4759 8.32147 46.243 8.49318 46.0713C8.66489 45.8996 8.89779 45.8031 9.14062 45.8031Z" fill="#2F363D" stroke="white" stroke-width="0.2"/>
<path d="M35.5469 45.8031H39.6094C39.8522 45.8031 40.0851 45.8996 40.2568 46.0713C40.4285 46.243 40.525 46.4759 40.525 46.7188C40.525 46.9616 40.4285 47.1945 40.2568 47.3662C40.0851 47.5379 39.8522 47.6344 39.6094 47.6344H35.5469C35.304 47.6344 35.0711 47.5379 34.8994 47.3662C34.7277 47.1945 34.6313 46.9616 34.6313 46.7188C34.6313 46.4759 34.7277 46.243 34.8994 46.0713C35.0711 45.8996 35.304 45.8031 35.5469 45.8031Z" fill="#2F363D" stroke="white" stroke-width="0.2"/>
<path d="M9.14062 49.8656H29.4531C29.696 49.8656 29.9289 49.9621 30.1006 50.1338C30.2723 50.3055 30.3687 50.5384 30.3687 50.7812C30.3687 51.0241 30.2723 51.257 30.1006 51.4287C29.9289 51.6004 29.696 51.6969 29.4531 51.6969H9.14062C8.89779 51.6969 8.66489 51.6004 8.49318 51.4287C8.32147 51.257 8.225 51.0241 8.225 50.7812C8.225 50.5384 8.32147 50.3055 8.49318 50.1338C8.66489 49.9621 8.89779 49.8656 9.14062 49.8656Z" fill="#2F363D" stroke="white" stroke-width="0.2"/>
<path d="M35.5469 49.8656H39.6094C39.8522 49.8656 40.0851 49.9621 40.2568 50.1338C40.4285 50.3055 40.525 50.5384 40.525 50.7812C40.525 51.0241 40.4285 51.257 40.2568 51.4287C40.0851 51.6004 39.8522 51.6969 39.6094 51.6969H35.5469C35.304 51.6969 35.0711 51.6004 34.8994 51.4287C34.7277 51.257 34.6313 51.0241 34.6313 50.7812C34.6313 50.5384 34.7277 50.3055 34.8994 50.1338C35.0711 49.9621 35.304 49.8656 35.5469 49.8656Z" fill="#2F363D" stroke="white" stroke-width="0.2"/>
<path d="M38.4938 30.4716L38.4938 30.4718C38.496 32.2944 39.1026 34.0648 40.2185 35.5059C41.3344 36.947 42.8966 37.9774 44.6606 38.4359L44.7857 38.4684V38.3391V22.6044V22.4751L44.6606 22.5076C42.8966 22.966 41.3344 23.9964 40.2185 25.4375C39.1026 26.8786 38.4961 28.649 38.4938 30.4716ZM46.617 38.5967V38.6967H46.717H46.7187C48.9002 38.6967 50.9922 37.8301 52.5347 36.2876C54.0772 34.7451 54.9437 32.6531 54.9437 30.4717C54.9437 28.2903 54.0772 26.1982 52.5347 24.6557C50.9922 23.1132 48.9002 22.2467 46.7187 22.2467H46.717H46.617V22.3467V38.5967ZM41.1318 22.1102C42.7855 21.0052 44.7298 20.4154 46.7187 20.4154C49.3849 20.4184 51.941 21.4789 53.8262 23.3642C55.7115 25.2495 56.772 27.8056 56.775 30.4718C56.775 32.4607 56.1852 34.4049 55.0802 36.0586C53.9752 37.7124 52.4046 39.0013 50.5671 39.7624C48.7296 40.5236 46.7076 40.7227 44.7569 40.3347C42.8062 39.9467 41.0143 38.9889 39.6079 37.5825C38.2015 36.1761 37.2438 34.3843 36.8557 32.4336C36.4677 30.4828 36.6669 28.4609 37.428 26.6233C38.1891 24.7858 39.4781 23.2152 41.1318 22.1102Z" fill="#2F363D" stroke="white" stroke-width="0.2"/>
<mask id="path-13-inside-1" fill="white">
<path d="M62.6719 58.5194L57.9762 48.7627C57.943 48.6329 57.8844 48.5111 57.8037 48.4042L56.1279 44.9216C56.0699 44.801 55.9886 44.6931 55.8887 44.6041C55.7889 44.5151 55.6724 44.4466 55.5461 44.4027C55.4197 44.3588 55.2859 44.3403 55.1523 44.3482C55.0188 44.3562 54.8881 44.3905 54.7678 44.4491L53.8549 44.8934L53.0333 43.2075C55.9075 41.7841 58.216 39.4306 59.5836 36.5295C60.9513 33.6283 61.2978 30.3499 60.5668 27.2269C59.8358 24.104 58.0703 21.3199 55.5572 19.3271C53.044 17.3343 49.9308 16.2499 46.7234 16.25H46.7188V3.04688C46.7188 2.77751 46.6117 2.51919 46.4213 2.32872C46.2308 2.13825 45.9725 2.03125 45.7031 2.03125H3.04688C2.77751 2.03125 2.51919 2.13825 2.32872 2.32872C2.13825 2.51919 2.03125 2.77751 2.03125 3.04688V56.98C2.03125 57.1164 2.05871 57.2513 2.112 57.3769C2.16528 57.5024 2.2433 57.6159 2.3414 57.7106L5.38827 60.6525C5.57762 60.8353 5.83054 60.9375 6.09375 60.9375C6.35696 60.9375 6.60988 60.8353 6.79923 60.6525L9.14062 58.3917L11.482 60.6525C11.6714 60.8353 11.9243 60.9375 12.1875 60.9375C12.4507 60.9375 12.7036 60.8353 12.893 60.6525L15.2344 58.3917L17.5758 60.6525C17.7651 60.8353 18.018 60.9375 18.2812 60.9375C18.5445 60.9375 18.7974 60.8353 18.9867 60.6525L21.3281 58.3917L23.6695 60.6525C23.8589 60.8353 24.1118 60.9375 24.375 60.9375C24.6382 60.9375 24.8911 60.8353 25.0805 60.6525L27.4219 58.3917L29.7633 60.6525C29.9526 60.8353 30.2055 60.9375 30.4688 60.9375C30.732 60.9375 30.9849 60.8353 31.1742 60.6525L33.5156 58.3917L35.857 60.6525C36.0464 60.8353 36.2993 60.9375 36.5625 60.9375C36.8257 60.9375 37.0786 60.8353 37.268 60.6525L39.6094 58.3917L41.9508 60.6525C42.1401 60.8353 42.393 60.9375 42.6562 60.9375C42.9195 60.9375 43.1724 60.8353 43.3617 60.6525L46.4086 57.7106C46.5067 57.6159 46.5847 57.5024 46.638 57.3769C46.6913 57.2513 46.7188 57.1164 46.7188 56.98V44.6875H46.7234C48.2271 44.6885 49.7213 44.4501 51.1499 43.9811L52.0286 45.7839L51.1155 46.2282C50.8742 46.3459 50.6894 46.5544 50.6014 46.808C50.5133 47.0616 50.5293 47.3398 50.6458 47.5816L57.1924 61.1843C57.5463 61.9107 58.1743 62.4668 58.9383 62.7302C59.7022 62.9936 60.5395 62.9427 61.2659 62.5888C61.9916 62.2352 62.5473 61.608 62.811 60.845C63.0747 60.0821 63.0248 59.2457 62.6723 58.5194H62.6719ZM44.6875 56.5489L42.6562 58.5102L40.3149 56.2494C40.1255 56.0665 39.8726 55.9644 39.6094 55.9644C39.3462 55.9644 39.0932 56.0665 38.9039 56.2494L36.5625 58.5102L34.2211 56.2494C34.0318 56.0665 33.7788 55.9644 33.5156 55.9644C33.2524 55.9644 32.9995 56.0665 32.8101 56.2494L30.4688 58.5102L28.1274 56.2494C27.938 56.0665 27.6851 55.9644 27.4219 55.9644C27.1587 55.9644 26.9057 56.0665 26.7164 56.2494L24.375 58.5102L22.0336 56.2494C21.8443 56.0665 21.5913 55.9644 21.3281 55.9644C21.0649 55.9644 20.812 56.0665 20.6226 56.2494L18.2812 58.5102L15.9399 56.2494C15.7505 56.0665 15.4976 55.9644 15.2344 55.9644C14.9712 55.9644 14.7182 56.0665 14.5289 56.2494L12.1875 58.5102L9.8461 56.2494C9.65676 56.0665 9.40383 55.9644 9.14062 55.9644C8.87742 55.9644 8.62449 56.0665 8.43515 56.2494L6.09375 58.5102L4.0625 56.5489V4.0625H44.6875V16.3964C43.9904 16.4971 43.3018 16.6499 42.6276 16.8534C42.5614 16.365 42.3778 15.9 42.0925 15.4981C41.8072 15.0963 41.4286 14.7697 40.9893 14.5463C40.55 14.3229 40.0631 14.2094 39.5703 14.2155C39.0775 14.2216 38.5936 14.3472 38.16 14.5815C37.7264 14.8158 37.356 15.1517 37.0808 15.5605C36.8056 15.9693 36.6336 16.4388 36.5797 16.9287C36.5257 17.4186 36.5914 17.9142 36.7711 18.3731C36.9508 18.832 37.2391 19.2405 37.6114 19.5635C35.9859 20.9189 34.6839 22.6205 33.8007 24.5438C32.9175 26.4672 32.4753 28.5637 32.5066 30.6799C32.5378 32.7961 33.0417 34.8786 33.9814 36.775C34.921 38.6714 36.2727 40.3338 37.9375 41.6406H35.5469C35.2775 41.6406 35.0192 41.7476 34.8287 41.9381C34.6383 42.1286 34.5312 42.3869 34.5312 42.6562C34.5312 42.9256 34.6383 43.1839 34.8287 43.3744C35.0192 43.5649 35.2775 43.6719 35.5469 43.6719H39.6094C39.7752 43.672 39.9386 43.6314 40.0851 43.5537C40.2317 43.476 40.3569 43.3636 40.4499 43.2263C41.7842 43.8854 43.2145 44.3292 44.6875 44.5411V56.5489ZM39.4357 18.2653C39.2288 18.2287 39.0384 18.1288 38.8909 17.9794C38.7433 17.8299 38.6458 17.6383 38.6119 17.4309C38.578 17.2236 38.6094 17.0109 38.7017 16.8222C38.794 16.6335 38.9426 16.4782 39.1271 16.3777C39.3116 16.2772 39.5227 16.2365 39.7313 16.2613C39.9399 16.2861 40.1356 16.3751 40.2914 16.516C40.4472 16.6569 40.5554 16.8427 40.6009 17.0478C40.6465 17.2528 40.6272 17.467 40.5457 17.6606L40.5509 17.6629C40.1694 17.8475 39.7977 18.0482 39.4357 18.2653ZM46.7234 42.6562C44.313 42.6562 41.9567 41.9415 39.9524 40.6023C37.9482 39.2631 36.3861 37.3597 35.4637 35.1327C34.5412 32.9057 34.2999 30.4552 34.7701 28.0911C35.2404 25.7269 36.4011 23.5553 38.1056 21.8509C39.81 20.1464 41.9816 18.9857 44.3458 18.5154C46.7099 18.0452 49.1604 18.2865 51.3874 19.209C53.6144 20.1314 55.5178 21.6935 56.857 23.6977C58.1962 25.702 58.9109 28.0583 58.9109 30.4688C58.9073 33.7 57.6221 36.7978 55.3373 39.0826C53.0525 41.3674 49.9546 42.6526 46.7234 42.6562ZM52.9141 47.6122L53.8305 47.1656H53.8314H53.8326L54.74 46.7233L55.621 48.5537L53.795 49.4435L52.9141 47.6122ZM60.8912 60.1806C60.8258 60.3701 60.7059 60.5361 60.5464 60.6575C60.387 60.779 60.1951 60.8506 59.9951 60.8633C59.795 60.8759 59.5957 60.8291 59.4222 60.7286C59.2487 60.6282 59.1088 60.4787 59.0201 60.2989L54.6758 51.2726L56.5019 50.3827L60.8437 59.4047C60.9025 59.5245 60.937 59.6547 60.9451 59.788C60.9532 59.9212 60.9349 60.0547 60.891 60.1807L60.8912 60.1806Z"/>
</mask>
<path d="M62.6719 58.5194L57.9762 48.7627C57.943 48.6329 57.8844 48.5111 57.8037 48.4042L56.1279 44.9216C56.0699 44.801 55.9886 44.6931 55.8887 44.6041C55.7889 44.5151 55.6724 44.4466 55.5461 44.4027C55.4197 44.3588 55.2859 44.3403 55.1523 44.3482C55.0188 44.3562 54.8881 44.3905 54.7678 44.4491L53.8549 44.8934L53.0333 43.2075C55.9075 41.7841 58.216 39.4306 59.5836 36.5295C60.9513 33.6283 61.2978 30.3499 60.5668 27.2269C59.8358 24.104 58.0703 21.3199 55.5572 19.3271C53.044 17.3343 49.9308 16.2499 46.7234 16.25H46.7188V3.04688C46.7188 2.77751 46.6117 2.51919 46.4213 2.32872C46.2308 2.13825 45.9725 2.03125 45.7031 2.03125H3.04688C2.77751 2.03125 2.51919 2.13825 2.32872 2.32872C2.13825 2.51919 2.03125 2.77751 2.03125 3.04688V56.98C2.03125 57.1164 2.05871 57.2513 2.112 57.3769C2.16528 57.5024 2.2433 57.6159 2.3414 57.7106L5.38827 60.6525C5.57762 60.8353 5.83054 60.9375 6.09375 60.9375C6.35696 60.9375 6.60988 60.8353 6.79923 60.6525L9.14062 58.3917L11.482 60.6525C11.6714 60.8353 11.9243 60.9375 12.1875 60.9375C12.4507 60.9375 12.7036 60.8353 12.893 60.6525L15.2344 58.3917L17.5758 60.6525C17.7651 60.8353 18.018 60.9375 18.2812 60.9375C18.5445 60.9375 18.7974 60.8353 18.9867 60.6525L21.3281 58.3917L23.6695 60.6525C23.8589 60.8353 24.1118 60.9375 24.375 60.9375C24.6382 60.9375 24.8911 60.8353 25.0805 60.6525L27.4219 58.3917L29.7633 60.6525C29.9526 60.8353 30.2055 60.9375 30.4688 60.9375C30.732 60.9375 30.9849 60.8353 31.1742 60.6525L33.5156 58.3917L35.857 60.6525C36.0464 60.8353 36.2993 60.9375 36.5625 60.9375C36.8257 60.9375 37.0786 60.8353 37.268 60.6525L39.6094 58.3917L41.9508 60.6525C42.1401 60.8353 42.393 60.9375 42.6562 60.9375C42.9195 60.9375 43.1724 60.8353 43.3617 60.6525L46.4086 57.7106C46.5067 57.6159 46.5847 57.5024 46.638 57.3769C46.6913 57.2513 46.7188 57.1164 46.7188 56.98V44.6875H46.7234C48.2271 44.6885 49.7213 44.4501 51.1499 43.9811L52.0286 45.7839L51.1155 46.2282C50.8742 46.3459 50.6894 46.5544 50.6014 46.808C50.5133 47.0616 50.5293 47.3398 50.6458 47.5816L57.1924 61.1843C57.5463 61.9107 58.1743 62.4668 58.9383 62.7302C59.7022 62.9936 60.5395 62.9427 61.2659 62.5888C61.9916 62.2352 62.5473 61.608 62.811 60.845C63.0747 60.0821 63.0248 59.2457 62.6723 58.5194H62.6719ZM44.6875 56.5489L42.6562 58.5102L40.3149 56.2494C40.1255 56.0665 39.8726 55.9644 39.6094 55.9644C39.3462 55.9644 39.0932 56.0665 38.9039 56.2494L36.5625 58.5102L34.2211 56.2494C34.0318 56.0665 33.7788 55.9644 33.5156 55.9644C33.2524 55.9644 32.9995 56.0665 32.8101 56.2494L30.4688 58.5102L28.1274 56.2494C27.938 56.0665 27.6851 55.9644 27.4219 55.9644C27.1587 55.9644 26.9057 56.0665 26.7164 56.2494L24.375 58.5102L22.0336 56.2494C21.8443 56.0665 21.5913 55.9644 21.3281 55.9644C21.0649 55.9644 20.812 56.0665 20.6226 56.2494L18.2812 58.5102L15.9399 56.2494C15.7505 56.0665 15.4976 55.9644 15.2344 55.9644C14.9712 55.9644 14.7182 56.0665 14.5289 56.2494L12.1875 58.5102L9.8461 56.2494C9.65676 56.0665 9.40383 55.9644 9.14062 55.9644C8.87742 55.9644 8.62449 56.0665 8.43515 56.2494L6.09375 58.5102L4.0625 56.5489V4.0625H44.6875V16.3964C43.9904 16.4971 43.3018 16.6499 42.6276 16.8534C42.5614 16.365 42.3778 15.9 42.0925 15.4981C41.8072 15.0963 41.4286 14.7697 40.9893 14.5463C40.55 14.3229 40.0631 14.2094 39.5703 14.2155C39.0775 14.2216 38.5936 14.3472 38.16 14.5815C37.7264 14.8158 37.356 15.1517 37.0808 15.5605C36.8056 15.9693 36.6336 16.4388 36.5797 16.9287C36.5257 17.4186 36.5914 17.9142 36.7711 18.3731C36.9508 18.832 37.2391 19.2405 37.6114 19.5635C35.9859 20.9189 34.6839 22.6205 33.8007 24.5438C32.9175 26.4672 32.4753 28.5637 32.5066 30.6799C32.5378 32.7961 33.0417 34.8786 33.9814 36.775C34.921 38.6714 36.2727 40.3338 37.9375 41.6406H35.5469C35.2775 41.6406 35.0192 41.7476 34.8287 41.9381C34.6383 42.1286 34.5312 42.3869 34.5312 42.6562C34.5312 42.9256 34.6383 43.1839 34.8287 43.3744C35.0192 43.5649 35.2775 43.6719 35.5469 43.6719H39.6094C39.7752 43.672 39.9386 43.6314 40.0851 43.5537C40.2317 43.476 40.3569 43.3636 40.4499 43.2263C41.7842 43.8854 43.2145 44.3292 44.6875 44.5411V56.5489ZM39.4357 18.2653C39.2288 18.2287 39.0384 18.1288 38.8909 17.9794C38.7433 17.8299 38.6458 17.6383 38.6119 17.4309C38.578 17.2236 38.6094 17.0109 38.7017 16.8222C38.794 16.6335 38.9426 16.4782 39.1271 16.3777C39.3116 16.2772 39.5227 16.2365 39.7313 16.2613C39.9399 16.2861 40.1356 16.3751 40.2914 16.516C40.4472 16.6569 40.5554 16.8427 40.6009 17.0478C40.6465 17.2528 40.6272 17.467 40.5457 17.6606L40.5509 17.6629C40.1694 17.8475 39.7977 18.0482 39.4357 18.2653ZM46.7234 42.6562C44.313 42.6562 41.9567 41.9415 39.9524 40.6023C37.9482 39.2631 36.3861 37.3597 35.4637 35.1327C34.5412 32.9057 34.2999 30.4552 34.7701 28.0911C35.2404 25.7269 36.4011 23.5553 38.1056 21.8509C39.81 20.1464 41.9816 18.9857 44.3458 18.5154C46.7099 18.0452 49.1604 18.2865 51.3874 19.209C53.6144 20.1314 55.5178 21.6935 56.857 23.6977C58.1962 25.702 58.9109 28.0583 58.9109 30.4688C58.9073 33.7 57.6221 36.7978 55.3373 39.0826C53.0525 41.3674 49.9546 42.6526 46.7234 42.6562ZM52.9141 47.6122L53.8305 47.1656H53.8314H53.8326L54.74 46.7233L55.621 48.5537L53.795 49.4435L52.9141 47.6122ZM60.8912 60.1806C60.8258 60.3701 60.7059 60.5361 60.5464 60.6575C60.387 60.779 60.1951 60.8506 59.9951 60.8633C59.795 60.8759 59.5957 60.8291 59.4222 60.7286C59.2487 60.6282 59.1088 60.4787 59.0201 60.2989L54.6758 51.2726L56.5019 50.3827L60.8437 59.4047C60.9025 59.5245 60.937 59.6547 60.9451 59.788C60.9532 59.9212 60.9349 60.0547 60.891 60.1807L60.8912 60.1806Z" fill="#2F363D" stroke="white" stroke-width="0.4" mask="url(#path-13-inside-1)"/>
</svg>
