<svg width="18" height="18" viewBox="0 0 18 18" fill="none" xmlns="http://www.w3.org/2000/svg">
<path d="M16.9834 12.9791V15.3877C16.9843 15.6113 16.9385 15.8327 16.849 16.0375C16.7594 16.2424 16.628 16.4263 16.4632 16.5775C16.2985 16.7286 16.1039 16.8437 15.8921 16.9154C15.6803 16.987 15.4558 17.0136 15.2331 16.9935C12.7625 16.725 10.3894 15.8808 8.30428 14.5286C6.36438 13.2959 4.71968 11.6512 3.48699 9.71135C2.1301 7.61679 1.28568 5.23206 1.02214 2.75036C1.00208 2.52834 1.02846 2.30457 1.09962 2.0933C1.17078 1.88203 1.28514 1.6879 1.43544 1.52325C1.58573 1.35861 1.76867 1.22706 1.97259 1.13699C2.17651 1.04691 2.39695 1.00029 2.61988 1.00008H5.02852C5.41817 0.996243 5.79591 1.13422 6.09135 1.3883C6.38678 1.64237 6.57975 1.99521 6.63429 2.38103C6.73595 3.15185 6.92449 3.9087 7.1963 4.63713C7.30433 4.9245 7.3277 5.23682 7.26367 5.53707C7.19964 5.83732 7.05087 6.11292 6.83501 6.33121L5.81535 7.35087C6.95829 9.36092 8.62259 11.0252 10.6326 12.1682L11.6523 11.1485C11.8706 10.9326 12.1462 10.7839 12.4464 10.7198C12.7467 10.6558 13.059 10.6792 13.3464 10.7872C14.0748 11.059 14.8317 11.2476 15.6025 11.3492C15.9925 11.4042 16.3487 11.6007 16.6033 11.9012C16.8579 12.2017 16.9932 12.5853 16.9834 12.9791Z" stroke="white" stroke-linecap="round" stroke-linejoin="round"/>
</svg>
