<svg width="20" height="25" viewBox="0 0 20 25" fill="none" xmlns="http://www.w3.org/2000/svg">
<path d="M5.29363 3.57112V11.0712C3.56349 9.4643 1.66057 8.21405 0.449251 9.4643C-1.28088 11.25 2.35263 14.7323 5.12129 19.9999C7.11151 23.661 9.87928 25 12.6475 25C13.6133 25.0007 14.5697 24.8049 15.4621 24.4238C16.3545 24.0427 17.1654 23.4836 17.8483 22.7788C18.5311 22.0739 19.0727 21.237 19.4419 20.3158C19.8111 19.3947 20.0008 18.4075 20 17.4107V12.0535C19.9999 11.639 19.888 11.2327 19.6768 10.8802C19.4656 10.5276 19.1635 10.2427 18.8043 10.0574C18.4451 9.87201 18.043 9.79351 17.6431 9.83067C17.2431 9.86783 16.8611 10.0192 16.5397 10.2678C16.5396 9.85328 16.4277 9.44701 16.2165 9.09446C16.0053 8.74191 15.7032 8.457 15.344 8.27163C14.9849 8.08627 14.5828 8.00777 14.1828 8.04493C13.7828 8.08209 13.4008 8.23343 13.0795 8.48202V2.23217C13.0823 1.93823 13.0283 1.64667 12.9206 1.37454C12.813 1.10241 12.6538 0.855181 12.4524 0.647328C12.251 0.439475 12.0115 0.275174 11.7478 0.164041C11.4842 0.0529081 11.2017 -0.00282297 10.9169 0.000110031C9.96703 0.000110031 9.18677 0.624769 8.92668 1.4287C8.58066 1.07155 8.06139 0.892747 7.45618 0.892747C6.4181 0.892747 5.55281 1.69621 5.38002 2.67849C5.34112 2.83012 5.31732 2.98545 5.30901 3.14208C5.30222 3.2672 5.29363 3.57112 5.29363 3.57112ZM19.1347 14.0181V17.4107C19.1347 21.0714 16.1946 24.1074 12.6466 24.1074C9.35956 24.1074 7.45618 22.2325 5.89929 19.6432C2.52541 13.7501 0.103224 11.0717 1.05491 10.0894C2.0066 9.10715 4.34194 11.25 6.15892 13.2146V3.1248C6.15892 2.41051 6.76413 1.78538 7.45618 1.78538C8.14824 1.78538 8.7539 2.41051 8.7539 3.1248V12.4998H9.61919V2.23217C9.61919 1.51787 10.2249 0.892747 10.9169 0.892747C11.609 0.892747 12.2142 1.51787 12.2142 2.23217V11.6072H13.0795V10.2678C13.0795 9.55347 13.6851 8.92834 14.3772 8.92834C15.0692 8.92834 15.6744 9.55347 15.6744 10.2678V12.4998H16.5397V12.0535C16.5397 11.3392 17.1454 10.7141 17.8374 10.7141C18.5295 10.7141 19.1347 11.3392 19.1347 12.0535V14.0181Z" fill="#4E72DB"/>
</svg>
