<svg width="65" height="65" viewBox="0 0 65 65" fill="none" xmlns="http://www.w3.org/2000/svg">
<path d="M50.7383 39.1791L55.2678 35.6092L55.2422 29.8386L57.7629 24.6437L55.255 19.4488L55.2806 13.6781L50.7511 10.0955L48.2688 4.8878L42.6389 3.62106L38.135 0L32.505 1.31791L26.8879 0L22.384 3.62106L16.7541 4.8878L14.2718 10.0955L9.72945 13.6781L9.75504 19.4488L7.23438 24.6437L9.75504 29.8386L9.72945 35.6092L14.259 39.1919L16.0759 43.0177L8.71863 58.7943L17.4322 57.4636L22.0129 65L29.6389 48.6348L32.4922 47.9695L34.7442 48.4941L42.447 65L47.0277 57.4636L55.7413 58.7943L48.6399 43.5679L50.7383 39.1791ZM21.7698 60.56L18.4942 55.1732L12.2757 56.1201L17.6497 44.5787L22.384 45.6408L26.8879 49.2618L21.7698 60.56ZM32.505 45.8071L27.3997 47.0098L23.318 43.7215L18.1999 42.5699L15.948 37.8356L11.8279 34.5856L11.8535 29.3396L9.56312 24.6309L11.8535 19.9094L11.8279 14.6634L15.948 11.4134L18.1999 6.67913L23.318 5.52756L27.3997 2.23917L32.505 3.42913L37.6104 2.23917L41.6921 5.52756L46.8102 6.67913L49.0621 11.4134L53.1822 14.6634L53.1566 19.9094L55.447 24.6181L53.1566 29.3268L53.1822 34.5728L49.0621 37.8228L46.8102 42.5571L41.6921 43.7087L37.6104 46.997L32.505 45.8071ZM52.1842 56.1329L45.9657 55.186L42.6901 60.56L37.3417 49.0955L38.1222 49.2746L42.6261 45.6535L46.8613 44.7067L52.1842 56.1329Z" fill="#2F363D"/>
<path d="M32.5069 6.51294C22.5138 6.51294 14.376 14.6507 14.376 24.6438C14.376 34.637 22.5138 42.7747 32.5069 42.7747C42.5 42.762 50.6378 34.637 50.6378 24.6438C50.6378 14.6507 42.5 6.51294 32.5069 6.51294ZM32.5069 40.6763C23.6653 40.6763 16.4744 33.4854 16.4744 24.6438C16.4744 15.8023 23.6653 8.61136 32.5069 8.61136C41.3484 8.61136 48.5394 15.8023 48.5394 24.6438C48.5394 33.4854 41.3484 40.6763 32.5069 40.6763Z" fill="#2F363D"/>
<path d="M46.1329 20.2164H35.7175L32.5059 10.3129L29.2943 20.2164H18.8789L27.2982 26.3326L24.0866 36.2361L32.5059 30.12L40.9252 36.2361L37.7136 26.3326L46.1329 20.2164ZM32.5059 27.5225L28.0659 30.7469L29.7549 25.5264L25.3149 22.302H30.7913L32.4803 17.0816L34.1693 22.302H39.6457L35.2057 25.5264L36.9458 30.7469L32.5059 27.5225Z" fill="#2F363D"/>
</svg>
