<svg width="14" height="14" viewBox="0 0 14 14" fill="none" xmlns="http://www.w3.org/2000/svg">
<path d="M8.41189 6.99994L12.7119 2.70994C12.9002 2.52164 13.006 2.26624 13.006 1.99994C13.006 1.73364 12.9002 1.47825 12.7119 1.28994C12.5236 1.10164 12.2682 0.99585 12.0019 0.99585C11.7356 0.99585 11.4802 1.10164 11.2919 1.28994L7.00189 5.58994L2.71189 1.28994C2.52359 1.10164 2.26819 0.99585 2.00189 0.99585C1.73559 0.99585 1.4802 1.10164 1.29189 1.28994C1.10359 1.47825 0.9978 1.73364 0.9978 1.99994C0.9978 2.26624 1.10359 2.52164 1.29189 2.70994L5.59189 6.99994L1.29189 11.2899C1.19816 11.3829 1.12377 11.4935 1.073 11.6154C1.02223 11.7372 0.996094 11.8679 0.996094 11.9999C0.996094 12.132 1.02223 12.2627 1.073 12.3845C1.12377 12.5064 1.19816 12.617 1.29189 12.7099C1.38486 12.8037 1.49546 12.8781 1.61732 12.9288C1.73917 12.9796 1.86988 13.0057 2.00189 13.0057C2.1339 13.0057 2.26461 12.9796 2.38647 12.9288C2.50833 12.8781 2.61893 12.8037 2.71189 12.7099L7.00189 8.40994L11.2919 12.7099C11.3849 12.8037 11.4955 12.8781 11.6173 12.9288C11.7392 12.9796 11.8699 13.0057 12.0019 13.0057C12.1339 13.0057 12.2646 12.9796 12.3865 12.9288C12.5083 12.8781 12.6189 12.8037 12.7119 12.7099C12.8056 12.617 12.88 12.5064 12.9308 12.3845C12.9816 12.2627 13.0077 12.132 13.0077 11.9999C13.0077 11.8679 12.9816 11.7372 12.9308 11.6154C12.88 11.4935 12.8056 11.3829 12.7119 11.2899L8.41189 6.99994Z" fill="var(--icon-close-color, #D2D2D2)"/>
</svg>
