<svg width="15" height="13" viewBox="0 0 15 13" fill="none" xmlns="http://www.w3.org/2000/svg">
<path d="M14.9767 9.92212C14.917 9.74891 14.749 9.63202 14.5598 9.63202H11.0684C10.8257 9.63202 10.6289 9.82182 10.6289 10.0559V12.576C10.6289 12.7365 10.7229 12.8832 10.8716 12.9551C11.0191 13.0263 11.1973 13.0124 11.3317 12.9155L14.823 10.3953C14.9746 10.286 15.0365 10.0954 14.9767 9.92212Z" fill="#9F9F9F"/>
<path d="M14.5605 1.4413H12.041V0.423913C12.041 0.1898 11.8443 0 11.6016 0C11.3589 0 11.1621 0.1898 11.1621 0.423913V1.4413H7.93945V0.423913C7.93945 0.1898 7.7427 0 7.5 0C7.2573 0 7.06055 0.1898 7.06055 0.423913V1.4413H3.83789V0.423913C3.83789 0.1898 3.64113 0 3.39844 0C3.15574 0 2.95898 0.1898 2.95898 0.423913V1.4413H0.439453C0.196758 1.4413 0 1.6311 0 1.86522V3.70217H15V1.86522C15 1.6311 14.8032 1.4413 14.5605 1.4413Z" fill="#9F9F9F"/>
<path d="M0 4.55002V12.5761C0 12.8102 0.196758 13 0.439453 13H9.75079V10.056C9.75079 9.35479 10.3422 8.78429 11.0691 8.78429H15V4.55002H0Z" fill="#9F9F9F"/>
</svg>
