<svg width="65" height="65" viewBox="0 0 65 65" fill="none" xmlns="http://www.w3.org/2000/svg">
<g clip-path="url(#clip0)">
<path d="M38.647 22.344C38.647 25.7336 35.889 28.4916 32.4994 28.4916C29.1098 28.4916 26.3519 25.7336 26.3519 22.344C26.3519 18.9544 29.1098 16.1965 32.4994 16.1965C35.889 16.1965 38.647 18.9544 38.647 22.344ZM36.5079 22.344C36.5079 20.1335 34.7099 18.3355 32.4994 18.3355C30.2889 18.3355 28.4909 20.1335 28.4909 22.344C28.4909 24.5545 30.2889 26.3525 32.4994 26.3525C34.7099 26.3525 36.5079 24.5545 36.5079 22.344Z" fill="#2F363D" stroke="white" stroke-width="0.4"/>
<path d="M23.0026 57.2708L23.05 57.4762L23.2526 57.4181C24.9891 56.9206 26.3519 55.3492 26.3519 53.574V49.0037V48.8037H26.1519H24.8824C24.3463 48.8037 23.8931 48.4068 23.8223 47.8755L23.6241 47.9019L23.8223 47.8755L23.2921 43.8992L23.2689 43.7257H23.0938H17.5066C15.3841 43.7257 13.6568 41.9985 13.6568 39.8759C13.6568 38.9583 13.9858 38.0688 14.5829 37.3714C14.5829 37.3713 14.5829 37.3713 14.583 37.3713L21.308 29.5255L21.3662 29.4576L21.3544 29.3689L20.7006 24.466C19.4189 14.8447 24.1012 5.06317 31.949 0.353105C32.2878 0.149779 32.711 0.149779 33.0499 0.353096C40.8959 5.06215 45.5804 14.8427 44.2983 24.4656L43.6445 29.3688L43.6326 29.4575L43.6909 29.5254L50.4156 37.3708C51.0132 38.0686 51.3422 38.9582 51.3422 39.8759C51.3422 41.9985 49.615 43.7257 47.4924 43.7257H41.9052H41.7301L41.7069 43.8992L41.1767 47.8755C41.1059 48.4068 40.6527 48.8037 40.1166 48.8037H38.847H38.647V49.0037V53.574C38.647 55.3492 40.0099 56.9206 41.7464 57.4181L41.949 57.4762L41.9963 57.2708C42.5983 54.659 44.8694 52.6779 47.6204 52.5153L47.7375 52.5084L47.7886 52.4027C49.4073 49.0572 53.1933 46.9623 57.1138 47.5156L57.1417 47.3176L57.1138 47.5156C59.1918 47.8087 61.1346 48.9759 62.5492 50.5867C63.964 52.1978 64.8374 54.2373 64.7988 56.2604C64.7089 60.8819 60.617 64.7996 55.8585 64.7996H38.2123C37.6217 64.7996 37.1428 64.3207 37.1428 63.7301C37.1428 63.1394 37.6217 62.6605 38.2123 62.6605H55.8584C59.4733 62.6605 62.5919 59.7201 62.6601 56.2192V56.2191C62.6886 54.7249 61.9851 53.1869 60.9076 51.9744C59.8295 50.7613 58.357 49.8511 56.8148 49.6337C54.1586 49.2589 51.5086 50.4997 50.1152 52.6261L49.9797 52.8327L50.2101 52.9221C51.0013 53.2293 51.7274 53.6981 52.3345 54.3062C52.7518 54.7243 52.7513 55.4015 52.3333 55.8188C51.9135 56.2378 51.2365 56.234 50.8208 55.8177C50.1078 55.1036 49.1852 54.6808 47.9912 54.6437L47.9912 54.6436H47.985C45.7768 54.6436 43.9789 56.4417 43.9789 58.6521C43.9789 59.2428 43.4999 59.7216 42.9094 59.7216C39.434 59.7216 36.5079 56.8971 36.5079 53.5741V49.0038V48.8038H36.3079H28.6908H28.4908V49.0038V53.5741C28.4908 56.8971 25.5648 59.7216 22.0894 59.7216C21.4988 59.7216 21.0199 59.2428 21.0199 58.6521C21.0199 56.4417 19.2218 54.6436 17.0113 54.6436V54.6435L17.0043 54.6437C15.7385 54.6883 14.8536 55.1409 14.178 55.8176C13.969 56.0268 13.6954 56.1315 13.4211 56.1315C13.1475 56.1315 12.8743 56.0273 12.6656 55.8189C12.2476 55.4014 12.2471 54.7242 12.6644 54.3062C13.2715 53.6981 13.9976 53.2293 14.7887 52.9221L15.019 52.8327L14.8836 52.6261C13.4898 50.4995 10.8393 49.2585 8.18427 49.6337C6.66978 49.8474 5.21134 50.743 4.13367 51.9362C3.05653 53.1288 2.33902 54.6419 2.33902 56.113C2.33902 59.6122 5.52082 62.6605 9.14048 62.6605H26.7867C27.3773 62.6605 27.8562 63.1394 27.8562 63.7301C27.8562 64.3207 27.3773 64.7996 26.7867 64.7996H9.14048C4.11792 64.7996 0.2 60.6022 0.2 56.113C0.2 54.1243 1.09288 52.1188 2.5082 50.5346C3.92329 48.9506 5.84675 47.8033 7.88534 47.5156C11.8039 46.9621 15.5912 49.056 17.2104 52.4027L17.2615 52.5083L17.3786 52.5153C20.1296 52.678 22.4007 54.659 23.0026 57.2708ZM48.7913 38.7626L48.7913 38.7625L43.5444 32.6415L43.2534 32.302L43.1943 32.7452L42.0455 41.3603L42.0153 41.5868H42.2438H47.4924C48.4358 41.5868 49.2031 40.8196 49.2031 39.8761C49.2031 39.468 49.0569 39.0728 48.7913 38.7626ZM32.6093 2.60213L32.4995 2.52992L32.3896 2.60213C30.4355 3.88663 28.6842 5.55023 27.2248 7.49771L26.9851 7.81765H27.3849H37.6141H38.0139L37.7741 7.4977C36.3146 5.55023 34.5635 3.88664 32.6093 2.60213ZM25.7416 9.95667H25.624L25.5669 10.0594C23.1563 14.3924 22.1808 19.3786 22.8209 24.1833L22.8209 24.1833L25.1186 41.4131L25.1418 41.5867H25.3169H39.6819H39.857L39.8801 41.4131L42.1782 24.183C42.8182 19.3785 41.8426 14.3922 39.4323 10.0594L39.3751 9.95667H39.2575H25.7416ZM16.2073 38.7629L16.2072 38.763C15.9422 39.0727 15.7958 39.468 15.7958 39.8759C15.7958 40.8194 16.5631 41.5867 17.5066 41.5867H22.7552H22.9837L22.9535 41.3602L21.8047 32.7452L21.7456 32.302L21.4546 32.6415L16.2073 38.7629ZM25.6554 43.7257H25.427L25.4572 43.9521L25.7958 46.4911L25.8189 46.6647H25.994H39.0051H39.1802L39.2034 46.4911L39.5417 43.9521L39.5718 43.7257H39.3434H25.6554Z" fill="#2F363D" stroke="white" stroke-width="0.4"/>
<path d="M33.569 63.7302C33.569 64.3209 33.0902 64.7998 32.4995 64.7998C31.9088 64.7998 31.43 64.3209 31.43 63.7302C31.43 63.1395 31.9088 62.6607 32.4995 62.6607C33.0902 62.6607 33.569 63.1395 33.569 63.7302Z" fill="#2F363D" stroke="white" stroke-width="0.4"/>
</g>
<defs>
<clipPath id="clip0">
<rect width="65" height="65" fill="white"/>
</clipPath>
</defs>
</svg>
